<svg xmlns="http://www.w3.org/2000/svg" xmlns:xlink="http://www.w3.org/1999/xlink" width="500" zoomAndPan="magnify" viewBox="0 0 375 374.999991" height="500" preserveAspectRatio="xMidYMid meet" version="1.0"><defs><clipPath id="9e2db90249"><path d="M 38 40.691406 L 338.542969 40.691406 L 338.542969 333.941406 L 38 333.941406 Z M 38 40.691406 " clip-rule="nonzero"/></clipPath><clipPath id="8dd598c519"><path d="M 38 62 L 321 62 L 321 333.941406 L 38 333.941406 Z M 38 62 " clip-rule="nonzero"/></clipPath><clipPath id="8c98777149"><path d="M 76 42 L 338.542969 42 L 338.542969 333 L 76 333 Z M 76 42 " clip-rule="nonzero"/></clipPath></defs><rect x="-37.5" width="450" fill="#ffffff" y="-37.499999" height="449.999989" fill-opacity="1"/><rect x="-37.5" width="450" fill="#ffffff" y="-37.499999" height="449.999989" fill-opacity="1"/><g clip-path="url(#9e2db90249)"><path fill="#38b6ff" d="M 222.492188 191.980469 C 233.941406 192.417969 235.265625 200.785156 235.265625 200.785156 L 207.523438 200.785156 C 207.519531 200.785156 211.042969 191.539062 222.492188 191.980469 Z M 338.660156 203.324219 C 338.660156 204.476562 337.722656 205.40625 336.574219 205.40625 L 319.824219 205.375 L 319.824219 324.011719 C 323.765625 325.671875 329.199219 328.003906 330.867188 328.898438 C 333.585938 330.347656 331.773438 332.695312 331.773438 332.695312 L 319.828125 332.695312 L 319.828125 332.878906 L 284.34375 332.878906 C 284.34375 332.878906 283.253906 330.164062 286.699219 328.535156 C 288.679688 327.597656 292.695312 325.640625 295.75 324.148438 L 295.75 205.332031 L 190.890625 205.136719 L 231.109375 262.929688 L 229.578125 263.699219 C 230.007812 264.207031 234.082031 268.992188 237.773438 273.191406 C 238.464844 273.972656 239.136719 274.738281 239.773438 275.449219 C 239.804688 275.484375 239.835938 275.515625 239.867188 275.554688 C 240.050781 275.753906 240.226562 275.949219 240.398438 276.148438 C 240.421875 276.175781 240.453125 276.203125 240.476562 276.230469 C 240.671875 276.445312 240.863281 276.65625 241.046875 276.855469 C 241.066406 276.875 241.082031 276.898438 241.101562 276.917969 C 241.253906 277.089844 241.40625 277.25 241.554688 277.40625 C 241.605469 277.457031 241.648438 277.511719 241.695312 277.558594 C 241.738281 277.609375 241.78125 277.652344 241.824219 277.695312 C 242.117188 276.882812 243.046875 276.414062 243.917969 276.757812 C 247.367188 278.109375 253.898438 280.609375 257.671875 281.640625 C 262.984375 283.09375 263.46875 282.125 268.78125 282.609375 C 274.09375 283.09375 276.75 286.109375 271.4375 288.160156 C 266.125 290.210938 244.515625 299.144531 240.417969 301.078125 C 236.3125 303.011719 227.621094 292.265625 227.621094 292.265625 C 227.621094 292.265625 227.652344 292.257812 227.683594 292.253906 L 219.175781 283.886719 L 209.152344 274.027344 L 208.191406 274.519531 L 191.773438 258.582031 L 172.699219 290.691406 L 169.664062 289.878906 C 169.355469 290.355469 163.355469 299.683594 159.761719 305.894531 C 159.492188 306.351562 159.242188 306.800781 159.003906 307.222656 C 158.992188 307.246094 158.980469 307.265625 158.964844 307.289062 C 158.738281 307.691406 158.527344 308.078125 158.335938 308.4375 C 158.316406 308.46875 158.304688 308.5 158.285156 308.53125 C 158.097656 308.878906 157.933594 309.203125 157.785156 309.496094 C 157.773438 309.523438 157.761719 309.546875 157.75 309.570312 C 157.601562 309.863281 157.472656 310.140625 157.375 310.367188 C 156.410156 312.625 156.140625 314.242188 156.089844 315.273438 C 157.0625 315.171875 158.066406 315.695312 158.550781 316.601562 C 159.363281 318.125 161.542969 321.0625 167.039062 323.769531 C 174.882812 327.628906 179.832031 329.441406 178.988281 331.859375 C 178.144531 334.277344 174.523438 333.910156 171.628906 333.910156 C 168.734375 333.910156 139.394531 333.910156 134.085938 333.910156 C 129.582031 333.910156 132.535156 323.328125 133.546875 320.101562 C 133.648438 319.761719 133.949219 319.539062 134.273438 319.503906 L 139.492188 305.863281 L 147.839844 284.058594 L 159.261719 287.089844 L 146.636719 283.699219 L 159.285156 251 L 162.324219 243.136719 C 162.324219 243.136719 152.203125 243.136719 138.800781 243.136719 C 138.925781 243.53125 139.054688 243.925781 139.152344 244.34375 C 139.152344 244.34375 118.429688 244.34375 93.761719 244.34375 L 93.761719 316.953125 L 113.585938 316.953125 C 115.703125 316.953125 117.421875 318.671875 117.421875 320.789062 L 117.421875 323.109375 L 113.570312 323.109375 C 115.519531 324.011719 116.882812 325.976562 116.882812 328.265625 C 116.882812 331.417969 114.332031 333.96875 111.179688 333.96875 C 108.027344 333.96875 105.476562 331.417969 105.476562 328.265625 C 105.476562 325.976562 106.835938 324.011719 108.785156 323.109375 L 90.371094 323.109375 C 92.320312 324.011719 93.683594 325.976562 93.683594 328.265625 C 93.683594 331.417969 91.132812 333.96875 87.980469 333.96875 C 84.828125 333.96875 82.277344 331.417969 82.277344 328.265625 C 82.277344 325.976562 83.636719 324.011719 85.585938 323.109375 L 67.199219 323.109375 C 69.144531 324.011719 70.507812 325.976562 70.507812 328.265625 C 70.507812 331.417969 67.957031 333.96875 64.804688 333.96875 C 61.652344 333.96875 59.101562 331.417969 59.101562 328.265625 C 59.101562 325.976562 60.460938 324.011719 62.414062 323.109375 L 58.195312 323.109375 L 58.195312 320.789062 C 58.195312 318.671875 59.917969 316.953125 62.035156 316.953125 L 81.433594 316.953125 L 81.433594 244.335938 C 79.824219 244.335938 78.214844 244.335938 76.605469 244.335938 C 45.21875 244.335938 36.289062 219.710938 38.460938 198.226562 C 38.460938 198.226562 41.386719 198.226562 50.015625 198.226562 C 43.410156 185.070312 44.542969 168.332031 49.867188 159.785156 C 55.839844 150.1875 76.847656 117.234375 76.847656 117.234375 C 76.847656 117.234375 73.046875 101.300781 73.046875 98.765625 C 73.046875 96.234375 74.136719 94.78125 76.488281 95.328125 C 78.835938 95.871094 90.429688 98.949219 98.394531 101.667969 C 101.921875 102.867188 104.269531 103.609375 106.523438 104.453125 C 107.402344 102.640625 108.332031 100.449219 109.042969 98.113281 C 107.746094 97.933594 106.527344 97.75 105.457031 97.5625 C 98.695312 96.355469 93.265625 88.265625 98.335938 76.199219 C 103.402344 64.128906 107.867188 57.367188 119.457031 57.605469 C 131.050781 57.847656 134.789062 60.746094 135.394531 65.214844 L 134.8125 65.597656 C 136.699219 69.667969 136.324219 75.355469 136.25 76.277344 L 137.375 76.515625 L 138.109375 72.832031 C 138.171875 72.53125 138.460938 72.34375 138.753906 72.402344 C 139.046875 72.464844 139.242188 72.753906 139.183594 73.046875 L 138.042969 78.726562 C 138.59375 79.453125 139.144531 80.207031 139.488281 80.757812 C 140.394531 82.207031 141.300781 82.386719 139.941406 83.199219 C 138.582031 84.011719 136.953125 85.464844 136.953125 85.464844 C 135.867188 91.621094 133.691406 96.417969 129.894531 97.140625 C 127.628906 97.566406 126.085938 98.257812 125.164062 98.976562 C 125.105469 99.226562 125.078125 99.476562 125.007812 99.734375 C 125.007812 99.734375 124.808594 99.722656 124.445312 99.691406 C 124.269531 99.9375 124.144531 100.175781 124.109375 100.402344 C 123.976562 101.191406 121.828125 107.855469 120.671875 111.402344 C 126.378906 114.5 131.496094 117.871094 137.617188 127.78125 L 137.617188 89.746094 L 267.539062 89.746094 C 267.605469 89.519531 267.808594 89.347656 268.058594 89.347656 C 268.308594 89.347656 268.511719 89.519531 268.578125 89.746094 L 268.707031 89.746094 L 268.707031 61.46875 L 336.535156 40.691406 L 336.535156 180.75 L 182.21875 180.75 C 180.46875 185.835938 178.121094 190.644531 173.707031 195.453125 C 170.910156 198.507812 166.988281 200.394531 162.777344 201.25 L 242.515625 201.25 L 242.515625 199.4375 L 260.242188 199.4375 C 260.566406 199.4375 260.878906 199.402344 261.179688 199.328125 C 261.234375 199.078125 261.441406 198.886719 261.707031 198.886719 L 262.226562 198.886719 C 263.703125 198.039062 264.5625 196.300781 264.125 194.496094 L 260.792969 180.785156 L 287.953125 180.785156 L 291.140625 196.453125 C 291.644531 198.929688 289.753906 201.25 287.226562 201.25 L 336.574219 201.25 C 337.730469 201.242188 338.660156 202.179688 338.660156 203.324219 Z M 113.78125 204.988281 C 113.78125 204.988281 116.136719 203.238281 117.582031 201.25 L 152.214844 201.25 C 147.957031 200.386719 144.082031 198.503906 141.476562 195.636719 C 134.230469 187.671875 127.175781 179.164062 127.175781 179.164062 C 127.175781 179.164062 126.632812 181.152344 124.820312 188.398438 C 124.777344 188.558594 124.722656 188.730469 124.671875 188.894531 C 123.277344 193.875 119.152344 200.523438 113.710938 205 Z M 113.78125 204.988281 " fill-opacity="1" fill-rule="nonzero"/></g><path fill="#f48540" d="M 136.953125 85.457031 C 135.867188 91.613281 133.691406 96.410156 129.894531 97.132812 C 126.09375 97.855469 124.28125 99.304688 124.097656 100.394531 C 123.914062 101.484375 119.929688 113.613281 119.929688 113.613281 L 103.902344 109.175781 C 103.902344 109.175781 107.617188 103.472656 109.335938 97.046875 C 111.058594 90.621094 101.730469 82.292969 105.621094 69.980469 C 109.515625 57.667969 123.730469 59.65625 130.609375 61.652344 C 137.488281 63.648438 136.21875 76.40625 136.21875 76.40625 C 136.21875 76.40625 138.578125 79.300781 139.480469 80.75 C 140.386719 82.203125 141.292969 82.378906 139.933594 83.191406 C 138.589844 84.007812 136.953125 85.457031 136.953125 85.457031 Z M 202.5 117.597656 C 202.5 117.597656 203.222656 115.425781 201.292969 116.03125 C 199.359375 116.636719 197.554688 117.121094 194.417969 118.324219 C 191.277344 119.53125 187.414062 121.339844 186.449219 122.308594 C 185.480469 123.277344 178.359375 133.414062 178.359375 133.414062 L 189.582031 139.570312 C 191.632812 139.089844 194.410156 136.308594 194.410156 136.308594 C 194.410156 136.308594 196.097656 136.671875 196.582031 135.828125 C 197.066406 134.980469 197.1875 133.894531 198.394531 130.875 C 199.601562 127.859375 198.03125 124.597656 198.03125 124.597656 C 198.03125 124.597656 202.015625 120.972656 203.222656 119.53125 C 204.433594 118.078125 202.5 117.597656 202.5 117.597656 Z M 242.578125 278.503906 C 239.078125 274.878906 229.542969 263.65625 229.542969 263.65625 L 209.023438 273.917969 L 230.386719 294.921875 C 230.386719 294.914062 246.078125 282.121094 242.578125 278.503906 Z M 133.816406 320.628906 C 133.816406 320.628906 134.78125 322.441406 142.503906 323.644531 C 150.226562 324.851562 156.144531 316.644531 156.144531 316.644531 C 156.144531 316.644531 155.539062 314.59375 157.351562 310.367188 C 159.164062 306.144531 169.664062 289.847656 169.664062 289.847656 L 147.816406 284.054688 Z M 133.816406 320.628906 " fill-opacity="1" fill-rule="nonzero"/><path fill="#ff5757" d="M 178.238281 132.625 L 192.359375 140.050781 C 192.359375 140.050781 189.097656 157.429688 186.019531 167.753906 C 182.941406 178.074219 181.675781 186.765625 173.707031 195.453125 C 165.742188 204.144531 148.722656 203.601562 141.476562 195.636719 C 134.230469 187.671875 127.175781 179.164062 127.175781 179.164062 C 127.175781 179.164062 126.632812 181.152344 124.820312 188.398438 C 123.007812 195.644531 115.039062 206.867188 105.628906 209.402344 C 96.210938 211.933594 87.703125 214.289062 85.347656 214.46875 L 63.441406 216.457031 C 63.441406 216.457031 62.351562 216.457031 52.757812 202.878906 C 43.160156 189.296875 43.882812 169.378906 49.863281 159.785156 C 55.835938 150.1875 76.84375 117.234375 76.84375 117.234375 C 76.84375 117.234375 73.042969 101.300781 73.042969 98.765625 C 73.042969 96.234375 74.132812 94.78125 76.480469 95.328125 C 78.832031 95.871094 90.421875 98.949219 98.390625 101.667969 C 106.355469 104.382812 108.347656 104.746094 116.675781 109.273438 C 125.003906 113.800781 131.519531 116.152344 140.394531 132.632812 C 149.265625 149.105469 160.851562 171.378906 160.851562 171.378906 C 160.851562 171.378906 170.808594 143.316406 172.257812 139.148438 C 173.714844 134.976562 178.238281 132.625 178.238281 132.625 Z M 242.578125 278.503906 C 241.4375 277.320312 239.65625 275.339844 237.773438 273.195312 C 232.675781 276.140625 223.140625 281.628906 219.164062 283.886719 L 230.386719 294.921875 C 230.386719 294.914062 246.078125 282.121094 242.578125 278.503906 Z M 139.46875 305.855469 L 133.816406 320.625 C 133.816406 320.625 134.78125 322.433594 142.503906 323.640625 C 150.226562 324.84375 156.144531 316.640625 156.144531 316.640625 C 156.144531 316.640625 155.539062 314.589844 157.351562 310.359375 C 157.765625 309.394531 158.640625 307.785156 159.742188 305.886719 C 155.128906 305.867188 144.054688 305.824219 139.46875 305.855469 Z M 139.46875 305.855469 " fill-opacity="1" fill-rule="nonzero"/><g clip-path="url(#8dd598c519)"><path fill="#004aad" d="M 117.402344 320.78125 L 117.402344 323.101562 L 113.554688 323.101562 C 115.5 324.007812 116.863281 325.972656 116.863281 328.261719 C 116.863281 331.410156 114.3125 333.964844 111.160156 333.964844 C 108.007812 333.964844 105.457031 331.410156 105.457031 328.261719 C 105.457031 325.972656 106.816406 324.007812 108.769531 323.101562 L 90.371094 323.101562 C 92.320312 324.007812 93.683594 325.972656 93.683594 328.261719 C 93.683594 331.410156 91.132812 333.964844 87.980469 333.964844 C 84.828125 333.964844 82.277344 331.410156 82.277344 328.261719 C 82.277344 325.972656 83.636719 324.007812 85.585938 323.101562 L 67.199219 323.101562 C 69.144531 324.007812 70.507812 325.972656 70.507812 328.261719 C 70.507812 331.410156 67.957031 333.964844 64.804688 333.964844 C 61.652344 333.964844 59.101562 331.410156 59.101562 328.261719 C 59.101562 325.972656 60.460938 324.007812 62.414062 323.101562 L 58.195312 323.101562 L 58.195312 320.78125 C 58.195312 318.664062 59.917969 316.945312 62.035156 316.945312 L 81.433594 316.945312 L 81.433594 244.335938 C 79.824219 244.335938 78.214844 244.335938 76.605469 244.335938 C 45.21875 244.335938 36.289062 219.710938 38.460938 198.226562 C 38.460938 198.226562 42.804688 198.226562 56.570312 198.226562 C 70.332031 198.226562 87.226562 205.710938 98.574219 218.507812 C 109.917969 231.304688 134.789062 226.476562 139.132812 244.335938 C 139.132812 244.335938 118.414062 244.335938 93.746094 244.335938 L 93.746094 316.945312 L 113.566406 316.945312 C 115.683594 316.945312 117.402344 318.664062 117.402344 320.78125 Z M 268.769531 282.601562 C 263.457031 282.121094 262.972656 283.085938 257.660156 281.636719 C 253.886719 280.609375 247.355469 278.109375 243.90625 276.753906 C 242.882812 276.347656 241.757812 277.066406 241.714844 278.164062 C 241.632812 280.214844 241.101562 283.304688 238.953125 286.101562 C 235.332031 290.808594 227.609375 292.257812 227.609375 292.257812 C 227.609375 292.257812 236.296875 303.003906 240.40625 301.070312 C 244.511719 299.136719 266.113281 290.210938 271.425781 288.152344 C 276.734375 286.101562 274.082031 283.085938 268.769531 282.601562 Z M 167.011719 323.769531 C 161.523438 321.0625 159.339844 318.125 158.527344 316.601562 C 157.914062 315.457031 156.464844 314.902344 155.308594 315.496094 C 153.796875 316.273438 153.617188 318.457031 153.617188 318.457031 C 153.617188 318.457031 150.601562 321.234375 143.960938 321.113281 C 139.21875 321.027344 136.074219 320.078125 134.664062 319.539062 C 134.195312 319.363281 133.667969 319.621094 133.523438 320.101562 C 132.519531 323.328125 129.5625 333.910156 134.058594 333.910156 C 139.371094 333.910156 168.703125 333.910156 171.601562 333.910156 C 174.503906 333.910156 178.121094 334.269531 178.964844 331.859375 C 179.808594 329.441406 174.859375 327.628906 167.011719 323.769531 Z M 258.265625 170.46875 L 197.433594 170.46875 C 197.128906 170.46875 196.882812 170.222656 196.882812 169.917969 L 196.882812 143.121094 C 196.882812 142.816406 197.128906 142.570312 197.433594 142.570312 L 258.265625 142.570312 C 258.574219 142.570312 258.816406 142.816406 258.816406 143.121094 L 258.816406 169.917969 C 258.816406 170.222656 258.566406 170.46875 258.265625 170.46875 Z M 197.976562 143.671875 L 197.976562 162.453125 C 200.488281 159.914062 208.171875 152.917969 216.195312 153.746094 C 219.554688 154.085938 222.996094 155.863281 226.328125 157.574219 C 232.632812 160.820312 238.582031 163.878906 243.984375 158.023438 C 252.007812 149.332031 256.824219 148.324219 257.722656 148.207031 L 257.722656 143.671875 Z M 257.714844 169.375 L 257.714844 149.320312 C 256.71875 149.511719 252.171875 150.769531 244.785156 158.769531 C 238.820312 165.238281 232.210938 161.835938 225.820312 158.546875 C 222.585938 156.882812 219.230469 155.15625 216.078125 154.832031 C 207.1875 153.910156 198.332031 163.644531 197.972656 164.050781 L 197.972656 169.375 Z M 197.425781 117.542969 C 197.457031 117.542969 197.488281 117.542969 197.523438 117.535156 C 197.820312 117.480469 198.019531 117.199219 197.972656 116.898438 C 197.972656 116.886719 197.820312 115.957031 198.316406 115.308594 C 198.609375 114.921875 199.105469 114.703125 199.769531 114.640625 C 202.445312 114.410156 203.644531 114.519531 203.652344 114.519531 C 203.761719 114.53125 203.859375 114.5 203.945312 114.457031 L 203.945312 126.679688 C 200.601562 126.679688 199.300781 124.210938 199.246094 124.109375 C 199.109375 123.839844 198.78125 123.734375 198.511719 123.867188 C 198.242188 124.003906 198.132812 124.335938 198.265625 124.601562 C 198.332031 124.730469 199.910156 127.773438 203.945312 127.773438 C 203.964844 127.773438 203.980469 127.765625 204 127.761719 C 204.269531 130.25 206.355469 132.199219 208.917969 132.199219 L 214.539062 132.199219 C 217.285156 132.199219 219.511719 129.96875 219.511719 127.222656 L 219.511719 112.925781 C 219.511719 112.167969 218.902344 111.550781 218.140625 111.550781 L 205.328125 111.453125 C 204.5625 111.445312 203.9375 112.066406 203.9375 112.828125 L 203.9375 113.484375 C 203.882812 113.453125 203.820312 113.433594 203.753906 113.429688 C 203.707031 113.421875 202.464844 113.308594 199.667969 113.550781 C 198.667969 113.636719 197.917969 114.011719 197.425781 114.652344 C 196.636719 115.6875 196.871094 117.039062 196.882812 117.09375 C 196.9375 117.359375 197.171875 117.542969 197.425781 117.542969 Z M 182.605469 118.507812 C 182.605469 127.0625 175.648438 134.027344 167.085938 134.027344 C 158.527344 134.027344 151.566406 127.070312 151.566406 118.507812 C 151.566406 109.945312 158.527344 102.988281 167.085938 102.988281 C 175.648438 102.988281 182.605469 109.945312 182.605469 118.507812 Z M 181.511719 118.507812 C 181.511719 110.742188 175.335938 104.410156 167.636719 104.117188 L 167.636719 117.957031 L 180.660156 117.957031 C 180.964844 117.957031 181.210938 118.203125 181.210938 118.507812 C 181.210938 118.8125 180.964844 119.058594 180.660156 119.058594 L 167.09375 119.058594 C 166.785156 119.058594 166.542969 118.8125 166.542969 118.507812 L 166.542969 104.117188 C 158.84375 104.410156 152.667969 110.742188 152.667969 118.507812 C 152.667969 126.457031 159.136719 132.925781 167.085938 132.925781 C 175.035156 132.925781 181.511719 126.457031 181.511719 118.507812 Z M 320.429688 62.675781 L 320.429688 153.566406 L 277.941406 153.566406 L 278.179688 74.503906 Z M 311.261719 86.675781 L 302.082031 94.347656 L 309.316406 105.851562 C 311.175781 102.933594 312.351562 98.761719 312.351562 94.117188 C 312.34375 91.429688 311.949219 88.902344 311.261719 86.675781 Z M 293.515625 94.117188 C 293.515625 102.945312 297.730469 110.113281 302.933594 110.113281 C 305.074219 110.113281 307.046875 108.882812 308.628906 106.832031 L 300.902344 94.53125 C 300.753906 94.300781 300.804688 93.992188 301.011719 93.824219 L 310.882812 85.574219 C 309.210938 81.105469 306.28125 78.132812 302.933594 78.132812 C 297.730469 78.125 293.515625 85.285156 293.515625 94.117188 Z M 284.457031 113.007812 L 287.238281 113.007812 L 287.238281 80.660156 L 284.703125 81.382812 Z M 312.707031 117.113281 C 312.707031 117.113281 297.378906 134.375 297.132812 134.738281 C 296.894531 135.097656 291.097656 130.390625 291.097656 130.390625 L 285.910156 135.460938 L 285.671875 143.550781 L 312.707031 143.550781 Z M 287.960938 180.785156 L 260.800781 180.785156 L 264.128906 194.496094 C 264.742188 197.007812 262.832031 199.4375 260.242188 199.4375 L 242.515625 199.4375 L 242.515625 201.25 L 287.230469 201.25 C 289.757812 201.25 291.65625 198.929688 291.148438 196.453125 Z M 287.960938 180.785156 " fill-opacity="1" fill-rule="nonzero"/></g><g clip-path="url(#8c98777149)"><path fill="#202020" d="M 334.125 180.125 L 334.125 43.484375 C 334.125 43.175781 334.371094 42.933594 334.675781 42.933594 C 334.980469 42.933594 335.226562 43.175781 335.226562 43.484375 L 335.226562 180.125 C 335.226562 180.429688 334.980469 180.675781 334.675781 180.675781 C 334.371094 180.675781 334.125 180.425781 334.125 180.125 Z M 105.453125 97.5625 C 112.214844 98.765625 125.003906 99.734375 125.003906 99.734375 C 127.296875 91.042969 120.296875 85.488281 120.296875 85.488281 C 115.46875 85.726562 111.96875 82.226562 113.902344 77.765625 C 115.835938 73.296875 121.871094 74.027344 121.871094 74.027344 L 122.835938 77.289062 C 123.839844 76.71875 124.648438 75.933594 125.289062 75.097656 L 137.164062 77.59375 L 136.183594 82.496094 C 136.121094 82.796875 136.316406 83.082031 136.613281 83.136719 C 136.648438 83.144531 136.683594 83.148438 136.722656 83.148438 C 136.980469 83.148438 137.207031 82.972656 137.261719 82.710938 L 139.195312 73.054688 C 139.253906 72.753906 139.058594 72.464844 138.765625 72.410156 C 138.464844 72.347656 138.179688 72.542969 138.125 72.839844 L 137.390625 76.523438 L 125.980469 74.125 C 127.144531 72.238281 127.554688 70.410156 127.554688 70.410156 L 135.398438 65.21875 C 134.792969 60.753906 131.054688 57.859375 119.464844 57.613281 C 107.875 57.375 103.414062 64.128906 98.339844 76.203125 C 93.265625 88.277344 98.6875 96.351562 105.453125 97.5625 Z M 136.109375 78.488281 C 136.109375 78.023438 135.730469 77.640625 135.265625 77.640625 C 134.800781 77.640625 134.421875 78.023438 134.421875 78.488281 C 134.421875 78.953125 134.800781 79.332031 135.265625 79.332031 C 135.730469 79.332031 136.109375 78.953125 136.109375 78.488281 Z M 131.042969 73.847656 C 130.816406 74.042969 130.792969 74.394531 130.988281 74.621094 C 131.097656 74.742188 131.25 74.808594 131.402344 74.808594 C 131.53125 74.808594 131.660156 74.765625 131.765625 74.675781 C 131.785156 74.664062 133.386719 73.296875 135.625 73.828125 C 135.925781 73.902344 136.214844 73.71875 136.289062 73.425781 C 136.355469 73.132812 136.175781 72.839844 135.882812 72.765625 C 133.097656 72.105469 131.128906 73.773438 131.042969 73.847656 Z M 131.96875 85.285156 C 131.789062 85.039062 131.445312 84.984375 131.203125 85.167969 C 130.957031 85.347656 130.910156 85.691406 131.085938 85.933594 C 131.148438 86.019531 132.617188 87.964844 135.632812 87.964844 C 135.9375 87.964844 136.183594 87.722656 136.183594 87.414062 C 136.183594 87.109375 135.9375 86.863281 135.632812 86.863281 C 133.195312 86.871094 132.023438 85.359375 131.96875 85.285156 Z M 120.425781 81.796875 C 120.53125 81.890625 120.660156 81.933594 120.78125 81.933594 C 120.933594 81.933594 121.085938 81.863281 121.195312 81.742188 C 121.394531 81.511719 121.367188 81.167969 121.136719 80.972656 C 120.460938 80.394531 120.589844 79.984375 120.800781 79.308594 C 120.976562 78.730469 121.214844 77.941406 120.609375 77.183594 C 119.378906 75.648438 116.902344 76.867188 116.796875 76.914062 C 116.527344 77.050781 116.417969 77.378906 116.550781 77.648438 C 116.6875 77.917969 117.015625 78.027344 117.285156 77.894531 C 117.304688 77.886719 119.085938 77.035156 119.753906 77.863281 C 119.980469 78.144531 119.929688 78.394531 119.753906 78.984375 C 119.53125 79.6875 119.207031 80.757812 120.425781 81.796875 Z M 195.015625 122.125 C 195.101562 122.125 195.1875 122.105469 195.265625 122.0625 L 202.269531 118.441406 C 202.539062 118.300781 202.640625 117.96875 202.5 117.699219 C 202.359375 117.429688 202.027344 117.328125 201.761719 117.46875 L 194.757812 121.089844 C 194.488281 121.230469 194.386719 121.5625 194.527344 121.832031 C 194.625 122.019531 194.820312 122.125 195.015625 122.125 Z M 336.578125 201.242188 L 117.582031 201.242188 C 116.128906 203.234375 113.78125 204.984375 113.78125 204.984375 L 295.75 205.324219 L 295.75 324.148438 C 292.695312 325.640625 288.675781 327.597656 286.699219 328.535156 C 283.257812 330.164062 284.34375 332.878906 284.34375 332.878906 L 319.828125 332.878906 L 319.828125 332.695312 L 331.78125 332.695312 C 331.78125 332.695312 333.59375 330.339844 330.875 328.898438 C 329.203125 328.003906 323.769531 325.679688 319.828125 324.011719 L 319.828125 205.375 L 336.578125 205.40625 C 337.730469 205.40625 338.664062 204.476562 338.664062 203.324219 C 338.660156 202.179688 337.730469 201.242188 336.578125 201.242188 Z M 156.835938 215.515625 C 156.777344 215.375 156.664062 215.265625 156.519531 215.214844 C 153.074219 213.949219 113.566406 206.628906 111.890625 206.316406 C 111.589844 206.261719 111.308594 206.457031 111.253906 206.757812 C 111.199219 207.058594 111.394531 207.339844 111.691406 207.394531 C 112.097656 207.46875 151.371094 214.742188 155.929688 216.167969 C 156.878906 218.195312 164.523438 233.476562 190.351562 258.128906 C 190.457031 258.234375 190.597656 258.285156 190.734375 258.285156 C 190.878906 258.285156 191.019531 258.230469 191.128906 258.113281 C 191.339844 257.890625 191.332031 257.542969 191.113281 257.335938 C 163.660156 231.136719 156.898438 215.667969 156.835938 215.515625 Z M 268.046875 180.246094 C 268.351562 180.246094 268.597656 180.003906 268.597656 179.695312 L 268.597656 89.894531 C 268.597656 89.585938 268.351562 89.34375 268.046875 89.34375 C 267.742188 89.34375 267.496094 89.585938 267.496094 89.894531 L 267.496094 179.695312 C 267.496094 180.003906 267.742188 180.246094 268.046875 180.246094 Z M 261.707031 199.984375 L 285.785156 199.984375 C 286.09375 199.984375 286.335938 199.738281 286.335938 199.433594 C 286.335938 199.125 286.09375 198.882812 285.785156 198.882812 L 261.707031 198.882812 C 261.402344 198.882812 261.15625 199.125 261.15625 199.433594 C 261.160156 199.738281 261.40625 199.984375 261.707031 199.984375 Z M 124.679688 188.882812 C 124.722656 188.71875 124.78125 188.546875 124.824219 188.386719 C 126.636719 181.140625 127.183594 179.152344 127.183594 179.152344 L 116.859375 167.703125 C 116.839844 167.496094 116.710938 167.3125 116.507812 167.230469 C 116.480469 167.21875 116.453125 167.226562 116.421875 167.21875 L 115.589844 166.296875 L 116 167.3125 C 115.914062 167.371094 115.84375 167.453125 115.804688 167.554688 L 100.230469 209.199219 C 100.128906 209.480469 100.269531 209.800781 100.550781 209.902344 C 100.609375 209.925781 100.679688 209.941406 100.738281 209.941406 C 100.960938 209.941406 101.167969 209.804688 101.253906 209.585938 L 116.546875 168.683594 Z M 87.238281 129.070312 C 94.191406 129.070312 100.121094 124.082031 108.132812 117.347656 L 109.0625 116.570312 C 109.292969 116.371094 109.324219 116.03125 109.128906 115.796875 C 108.933594 115.566406 108.589844 115.535156 108.359375 115.730469 L 107.429688 116.507812 C 99.085938 123.519531 93.058594 128.585938 85.949219 127.914062 C 78.863281 127.242188 77.398438 118.324219 77.386719 118.238281 C 77.339844 117.9375 77.0625 117.738281 76.761719 117.78125 C 76.464844 117.828125 76.261719 118.105469 76.304688 118.40625 C 76.316406 118.503906 77.90625 128.25 85.84375 129.003906 C 86.316406 129.050781 86.78125 129.070312 87.238281 129.070312 Z M 159.261719 250.996094 C 164.542969 246.851562 170.453125 243.132812 170.453125 243.132812 L 162.308594 243.132812 Z M 81.433594 252.097656 C 85.886719 249.488281 92.308594 245.578125 93.746094 244.703125 L 93.746094 244.519531 L 81.433594 244.519531 Z M 91.871094 316.761719 L 82.453125 316.761719 C 82.148438 316.761719 81.902344 317.007812 81.902344 317.3125 C 81.902344 317.617188 82.148438 317.863281 82.453125 317.863281 L 91.871094 317.863281 C 92.179688 317.863281 92.421875 317.617188 92.421875 317.3125 C 92.421875 317.007812 92.171875 316.761719 91.871094 316.761719 Z M 164.457031 180.824219 C 164.546875 181.03125 164.75 181.152344 164.957031 181.152344 C 165.03125 181.152344 165.105469 181.140625 165.171875 181.109375 C 165.445312 180.988281 165.582031 180.671875 165.460938 180.390625 L 161.835938 171.9375 C 161.71875 171.65625 161.390625 171.527344 161.113281 171.648438 C 160.839844 171.773438 160.703125 172.089844 160.828125 172.371094 Z M 164.457031 180.824219 " fill-opacity="1" fill-rule="nonzero"/></g></svg>