<svg xmlns="http://www.w3.org/2000/svg" xmlns:xlink="http://www.w3.org/1999/xlink" width="500" zoomAndPan="magnify" viewBox="0 0 375 374.999991" height="500" preserveAspectRatio="xMidYMid meet" version="1.0"><defs><g/><clipPath id="0e4c0857c2"><path d="M 325 90 L 350.253906 90 L 350.253906 129 L 325 129 Z M 325 90 " clip-rule="nonzero"/></clipPath><clipPath id="d536e29ece"><path d="M 325 136 L 350.253906 136 L 350.253906 151 L 325 151 Z M 325 136 " clip-rule="nonzero"/></clipPath><clipPath id="0475c0dcb7"><path d="M 325 157 L 350.253906 157 L 350.253906 306 L 325 306 Z M 325 157 " clip-rule="nonzero"/></clipPath><clipPath id="a70552ad6d"><path d="M 325 313 L 350.253906 313 L 350.253906 343 L 325 343 Z M 325 313 " clip-rule="nonzero"/></clipPath><clipPath id="4f3ec18015"><path d="M 24.753906 30.042969 L 182 30.042969 L 182 296 L 24.753906 296 Z M 24.753906 30.042969 " clip-rule="nonzero"/></clipPath></defs><rect x="-37.5" width="450" fill="#ffffff" y="-37.499999" height="449.999989" fill-opacity="1"/><rect x="-37.5" width="450" fill="#ffffff" y="-37.499999" height="449.999989" fill-opacity="1"/><path fill="#03aadf" d="M 264.726562 107.066406 L 230.746094 139.765625 L 264.726562 172.539062 Z M 264.726562 107.066406 " fill-opacity="1" fill-rule="evenodd"/><g clip-path="url(#0e4c0857c2)"><path fill="#03aadf" d="M 325.679688 90.789062 L 350.164062 90.789062 L 350.164062 128.839844 L 325.679688 128.839844 Z M 325.679688 90.789062 " fill-opacity="1" fill-rule="evenodd"/></g><g clip-path="url(#d536e29ece)"><path fill="#174089" d="M 325.679688 136.523438 L 350.164062 136.523438 L 350.164062 150.160156 L 325.679688 150.160156 Z M 325.679688 136.523438 " fill-opacity="1" fill-rule="evenodd"/></g><g clip-path="url(#0475c0dcb7)"><path fill="#174089" d="M 325.679688 157.921875 L 350.164062 157.921875 L 350.164062 305.898438 L 325.679688 305.898438 Z M 325.679688 157.921875 " fill-opacity="1" fill-rule="evenodd"/></g><g clip-path="url(#a70552ad6d)"><path fill="#03aadf" d="M 325.679688 313.582031 L 325.679688 325.414062 L 337.582031 342.140625 L 350.242188 325.414062 L 350.242188 313.582031 Z M 325.679688 313.582031 " fill-opacity="1" fill-rule="evenodd"/></g><path fill="#03aadf" d="M 225.167969 145.1875 L 191.339844 177.738281 L 259 177.738281 Z M 225.167969 145.1875 " fill-opacity="1" fill-rule="evenodd"/><path fill="#03aadf" d="M 191.339844 101.867188 L 225.167969 134.414062 L 259 101.867188 Z M 191.339844 101.867188 " fill-opacity="1" fill-rule="evenodd"/><path fill="#03aadf" d="M 185.613281 107.066406 L 185.613281 172.539062 L 219.59375 139.765625 Z M 185.613281 107.066406 " fill-opacity="1" fill-rule="evenodd"/><path fill="#174089" d="M 146.8125 96.214844 L 146.8125 327.597656 C 146.8125 337.089844 154.496094 344.777344 163.988281 344.777344 L 286.347656 344.777344 C 295.84375 344.777344 303.527344 337.089844 303.527344 327.597656 L 303.527344 96.214844 C 303.527344 86.722656 295.84375 79.035156 286.347656 79.035156 L 163.914062 79.035156 C 154.496094 79.035156 146.8125 86.722656 146.8125 96.214844 Z M 270.601562 184.894531 Z M 269.921875 185.195312 Z M 269.773438 185.273438 Z M 177.929688 181.582031 L 177.929688 98.097656 C 177.851562 97.121094 178.230469 96.0625 178.984375 95.3125 C 179.8125 94.480469 180.867188 94.105469 181.921875 94.105469 L 268.644531 94.105469 C 269.320312 94.105469 269.921875 94.257812 270.527344 94.558594 L 270.675781 94.558594 C 270.976562 94.707031 271.203125 94.933594 271.429688 95.160156 C 272.183594 95.988281 272.5625 97.042969 272.484375 98.023438 L 272.484375 181.429688 C 272.484375 182.785156 271.808594 183.992188 270.753906 184.667969 L 270.675781 184.746094 C 270.449219 184.894531 270.226562 184.972656 270 185.046875 L 269.773438 185.046875 C 269.472656 185.121094 269.171875 185.195312 268.867188 185.195312 L 181.09375 185.195312 C 180.339844 185.046875 179.660156 184.667969 179.132812 184.066406 C 178.757812 183.613281 178.457031 183.164062 178.230469 182.636719 L 178.230469 182.332031 C 177.929688 182.257812 177.929688 181.882812 177.929688 181.582031 Z M 165.269531 202.828125 L 285.144531 202.828125 C 287.253906 202.828125 288.984375 204.558594 288.984375 206.671875 C 288.984375 208.78125 287.253906 210.511719 285.144531 210.511719 L 165.269531 210.511719 C 163.160156 210.511719 161.425781 208.78125 161.425781 206.671875 C 161.425781 204.558594 163.085938 202.828125 165.269531 202.828125 Z M 165.269531 225.65625 L 285.144531 225.65625 C 287.253906 225.65625 288.984375 227.390625 288.984375 229.5 C 288.984375 231.609375 287.253906 233.34375 285.144531 233.34375 L 165.269531 233.34375 C 163.160156 233.34375 161.425781 231.609375 161.425781 229.5 C 161.351562 227.390625 163.085938 225.65625 165.269531 225.65625 Z M 165.269531 248.5625 L 285.144531 248.5625 C 287.253906 248.5625 288.984375 250.292969 288.984375 252.402344 C 288.984375 254.515625 287.253906 256.246094 285.144531 256.246094 L 165.269531 256.246094 C 163.160156 256.246094 161.425781 254.515625 161.425781 252.402344 C 161.351562 250.292969 163.085938 248.5625 165.269531 248.5625 Z M 165.269531 271.390625 L 285.144531 271.390625 C 287.253906 271.390625 288.984375 273.125 288.984375 275.234375 C 288.984375 277.34375 287.253906 279.074219 285.144531 279.074219 L 165.269531 279.074219 C 163.160156 279.074219 161.425781 277.34375 161.425781 275.234375 C 161.425781 273.125 163.085938 271.390625 165.269531 271.390625 Z M 165.269531 294.21875 L 285.144531 294.21875 C 287.253906 294.21875 288.984375 295.953125 288.984375 298.0625 C 288.984375 300.171875 287.253906 301.90625 285.144531 301.90625 L 165.269531 301.90625 C 163.160156 301.90625 161.425781 300.171875 161.425781 298.0625 C 161.425781 295.953125 163.085938 294.21875 165.269531 294.21875 Z M 165.269531 317.050781 L 285.144531 317.050781 C 287.253906 317.050781 288.984375 318.78125 288.984375 320.890625 C 288.984375 323.003906 287.253906 324.734375 285.144531 324.734375 L 165.269531 324.734375 C 163.160156 324.734375 161.425781 323.003906 161.425781 320.890625 C 161.425781 318.78125 163.085938 317.050781 165.269531 317.050781 Z M 165.269531 317.050781 " fill-opacity="1" fill-rule="evenodd"/><path fill="#03aadf" d="M 104.316406 71.199219 L 87.4375 87.324219 L 104.316406 103.597656 Z M 104.316406 71.199219 " fill-opacity="1" fill-rule="evenodd"/><path fill="#174089" d="M 104.316406 146.847656 L 87.4375 163.046875 L 104.316406 179.246094 Z M 104.316406 146.847656 " fill-opacity="1" fill-rule="evenodd"/><path fill="#03aadf" d="M 104.316406 222.566406 L 87.4375 238.765625 L 104.316406 254.964844 Z M 104.316406 222.566406 " fill-opacity="1" fill-rule="evenodd"/><path fill="#174089" d="M 81.9375 244.117188 L 65.210938 260.164062 L 98.589844 260.164062 Z M 81.9375 244.117188 " fill-opacity="1" fill-rule="evenodd"/><path fill="#174089" d="M 98.589844 217.367188 L 65.210938 217.367188 L 81.9375 233.417969 Z M 98.589844 217.367188 " fill-opacity="1" fill-rule="evenodd"/><path fill="#03aadf" d="M 81.9375 168.394531 L 65.210938 184.519531 L 98.589844 184.519531 Z M 81.9375 168.394531 " fill-opacity="1" fill-rule="evenodd"/><path fill="#03aadf" d="M 98.589844 141.648438 L 65.210938 141.648438 L 81.9375 157.695312 Z M 98.589844 141.648438 " fill-opacity="1" fill-rule="evenodd"/><path fill="#174089" d="M 81.9375 92.75 L 65.210938 108.796875 L 98.589844 108.796875 Z M 81.9375 92.75 " fill-opacity="1" fill-rule="evenodd"/><path fill="#174089" d="M 65.210938 65.925781 L 81.9375 82.050781 L 98.589844 65.925781 Z M 65.210938 65.925781 " fill-opacity="1" fill-rule="evenodd"/><path fill="#03aadf" d="M 59.484375 71.125 L 59.484375 103.597656 L 76.363281 87.324219 Z M 59.484375 71.125 " fill-opacity="1" fill-rule="evenodd"/><path fill="#174089" d="M 59.484375 146.847656 L 59.484375 179.320312 L 76.363281 163.046875 Z M 59.484375 146.847656 " fill-opacity="1" fill-rule="evenodd"/><path fill="#03aadf" d="M 59.484375 222.566406 L 59.484375 254.964844 L 76.363281 238.765625 Z M 59.484375 222.566406 " fill-opacity="1" fill-rule="evenodd"/><g clip-path="url(#4f3ec18015)"><path fill="#174089" d="M 110.042969 115.957031 Z M 52.628906 59.75 Z M 52.628906 59.671875 Z M 112 113.242188 C 111.851562 114.449219 111.171875 115.429688 110.191406 115.957031 L 110.117188 115.957031 L 110.042969 116.03125 C 109.816406 116.105469 109.664062 116.257812 109.441406 116.257812 C 109.363281 116.257812 109.289062 116.332031 109.214844 116.332031 L 54.964844 116.332031 C 54.210938 116.179688 53.535156 115.804688 52.929688 115.203125 C 52.554688 114.75 52.253906 114.296875 52.027344 113.769531 L 52.027344 113.46875 C 51.953125 113.167969 51.875 112.867188 51.875 112.488281 L 51.875 62.082031 C 51.875 61.179688 52.179688 60.351562 52.707031 59.671875 L 53.007812 59.371094 C 53.835938 58.542969 54.890625 58.167969 55.945312 58.167969 L 108.160156 58.167969 C 108.6875 58.167969 109.214844 58.316406 109.664062 58.46875 L 109.96875 58.46875 C 110.34375 58.695312 110.71875 58.917969 111.023438 59.222656 C 111.777344 60.050781 112.152344 61.027344 112.078125 62.082031 L 112.078125 112.261719 C 112.078125 112.488281 112.078125 112.714844 112.078125 112.867188 Z M 24.753906 47.390625 L 24.753906 278.773438 C 24.753906 288.269531 32.4375 295.953125 41.929688 295.953125 L 139.125 295.953125 L 139.125 96.214844 C 139.125 82.503906 150.277344 71.351562 163.988281 71.351562 L 181.46875 71.351562 L 181.46875 47.390625 C 181.46875 37.898438 173.785156 30.214844 164.289062 30.214844 L 41.929688 30.214844 C 32.4375 30.214844 24.753906 37.898438 24.753906 47.390625 Z M 112 188.890625 Z M 110.042969 191.675781 Z M 109.515625 191.976562 Z M 108.761719 192.128906 Z M 55.945312 133.960938 L 107.933594 133.960938 C 108.988281 133.886719 110.117188 134.265625 110.945312 135.167969 C 111.699219 135.996094 112.078125 136.976562 112 138.03125 L 112 188.210938 C 112 188.4375 112 188.664062 111.925781 188.964844 L 111.925781 189.039062 C 111.699219 190.09375 111.097656 191.074219 110.191406 191.601562 L 109.96875 191.601562 L 109.890625 191.675781 L 109.816406 191.75 C 109.664062 191.828125 109.515625 191.902344 109.363281 191.902344 L 109.289062 191.902344 L 109.136719 191.976562 L 108.007812 191.976562 L 108.160156 191.976562 L 54.964844 191.976562 C 54.210938 191.828125 53.535156 191.449219 52.929688 190.847656 C 52.554688 190.472656 52.328125 190.019531 52.101562 189.566406 L 52.101562 189.417969 C 51.953125 189.039062 51.875 188.585938 51.875 188.136719 L 51.875 137.578125 C 51.875 137.128906 51.953125 136.601562 52.101562 136.222656 L 52.101562 136.148438 C 52.253906 135.695312 52.554688 135.242188 52.929688 134.867188 C 53.683594 134.265625 54.816406 133.886719 55.945312 133.960938 Z M 51.953125 265.289062 Z M 52.628906 211.117188 Z M 52.628906 211.039062 Z M 55.71875 209.683594 L 108.160156 209.683594 C 108.535156 209.683594 108.988281 209.757812 109.363281 209.835938 L 109.441406 209.835938 C 110.042969 210.0625 110.496094 210.363281 110.945312 210.8125 C 111.699219 211.644531 112.078125 212.699219 112 213.675781 L 112 263.855469 C 112.078125 264.835938 111.699219 265.890625 110.945312 266.644531 C 110.417969 267.246094 109.664062 267.625 108.988281 267.773438 L 54.964844 267.773438 C 54.210938 267.625 53.535156 267.246094 52.929688 266.644531 C 52.554688 266.269531 52.328125 265.816406 52.101562 265.363281 L 52.101562 265.136719 C 51.953125 264.761719 51.875 264.382812 51.875 263.933594 L 51.875 213.375 C 51.875 212.472656 52.179688 211.644531 52.707031 210.964844 L 52.78125 210.890625 L 52.855469 210.8125 L 52.929688 210.738281 L 53.007812 210.664062 C 53.683594 210.0625 54.738281 209.609375 55.71875 209.683594 Z M 55.71875 209.683594 " fill-opacity="1" fill-rule="evenodd"/></g><g fill="#174089" fill-opacity="1"><g transform="translate(336.631007, 245.500532)"><g><path d="M 0.859375 0.03125 C 0.734375 0.03125 0.632812 0 0.5625 -0.0625 C 0.5 -0.132812 0.46875 -0.226562 0.46875 -0.34375 C 0.46875 -0.457031 0.5 -0.546875 0.5625 -0.609375 C 0.632812 -0.679688 0.734375 -0.71875 0.859375 -0.71875 C 0.984375 -0.71875 1.082031 -0.679688 1.15625 -0.609375 C 1.226562 -0.546875 1.265625 -0.457031 1.265625 -0.34375 C 1.265625 -0.226562 1.226562 -0.132812 1.15625 -0.0625 C 1.082031 0 0.984375 0.03125 0.859375 0.03125 Z M 0.859375 0.03125 "/></g></g></g></svg>