<svg xmlns="http://www.w3.org/2000/svg" xmlns:xlink="http://www.w3.org/1999/xlink" width="500" zoomAndPan="magnify" viewBox="0 0 375 374.999991" height="500" preserveAspectRatio="xMidYMid meet" version="1.0"><defs><clipPath id="7efc71b38f"><path d="M 108 37.5 L 313 37.5 L 313 328 L 108 328 Z M 108 37.5 " clip-rule="nonzero"/></clipPath><clipPath id="f537e23404"><path d="M 95 43 L 315.636719 43 L 315.636719 311.96875 L 95 311.96875 Z M 95 43 " clip-rule="nonzero"/></clipPath><clipPath id="94f97015cf"><path d="M 106 43 L 314 43 L 314 337.5 L 106 337.5 Z M 106 43 " clip-rule="nonzero"/></clipPath></defs><rect x="-37.5" width="450" fill="#ffffff" y="-37.499999" height="449.999989" fill-opacity="1"/><rect x="-37.5" width="450" fill="#ffffff" y="-37.499999" height="449.999989" fill-opacity="1"/><g clip-path="url(#7efc71b38f)"><path fill="#735099" d="M 307.394531 37.5 L 299.152344 57.378906 L 300.722656 70.632812 L 305.277344 81.125 L 310.894531 70.632812 L 312.59375 55.722656 Z M 171.894531 87.957031 L 199.75 82.800781 C 199.75 82.800781 200.859375 82.386719 202.714844 81.742188 C 206.992188 82.878906 217.683594 82.109375 224.617188 75.703125 C 226.875 75.296875 229.058594 75.007812 231.042969 74.890625 C 243.078125 74.203125 261.304688 63.886719 261.304688 63.886719 C 261.304688 63.886719 235.515625 66.980469 226.226562 67.324219 C 225.816406 67.34375 225.390625 67.378906 224.960938 67.421875 C 223.246094 62.066406 219.902344 52.28125 217.804688 50.304688 C 214.882812 47.550781 193.902344 41.535156 193.902344 41.535156 L 179.289062 44.800781 L 192.355469 44.457031 L 203.875 56.238281 L 204.179688 75.007812 C 203.121094 75.570312 202.5 75.925781 202.5 75.925781 Z M 281.074219 306.875 C 290.113281 313.5 302.757812 318.320312 302.757812 318.320312 C 302.757812 318.320312 298.605469 319.480469 291.902344 321.089844 C 271.105469 326.089844 276.582031 318.425781 267.019531 319.65625 C 266.0625 319.78125 263.253906 325.976562 262.277344 326.089844 C 249.230469 327.597656 236.9375 327.855469 223.832031 325.554688 C 189.484375 319.527344 178.453125 333.660156 141.882812 309.886719 C 130.976562 302.796875 177.984375 227.9375 178.914062 194.796875 C 179.101562 188.160156 180.09375 183.664062 180.988281 176.738281 C 178.179688 178.703125 174.632812 178.453125 171.417969 180.730469 C 163.640625 186.242188 155.6875 191.984375 152.472656 194.644531 C 145.3125 200.554688 133.644531 207.089844 133.644531 207.089844 C 133.644531 207.089844 129.289062 208.957031 118.398438 200.867188 C 109.816406 194.492188 108.863281 174.214844 108.847656 165.894531 C 108.84375 163.769531 110.308594 161.921875 112.378906 161.4375 C 117.777344 160.171875 128.125 157.921875 133.488281 157.910156 C 140.957031 157.894531 172.75 125.035156 172.75 125.035156 C 181.027344 116.871094 186.992188 121.085938 190.359375 125.527344 C 191.296875 121.949219 191.894531 119.878906 191.894531 119.878906 L 238.101562 118.914062 C 249.550781 118.675781 259.335938 127.105469 260.796875 138.460938 C 261.402344 143.136719 262.117188 148.742188 262.957031 155.355469 C 268.628906 159.1875 275.515625 160.789062 282.296875 159.847656 L 294.996094 158.089844 C 297.660156 157.332031 300.386719 159.042969 300.867188 161.769531 C 301.476562 165.253906 301.820312 170.394531 300.582031 176.652344 C 299.25 183.378906 298.457031 193.472656 298.015625 201.039062 C 297.726562 206.097656 292.597656 209.410156 287.859375 207.605469 L 268.3125 203.925781 C 271.746094 247.214844 273.671875 301.445312 281.074219 306.875 " fill-opacity="1" fill-rule="nonzero"/></g><path fill="#556caf" d="M 233.066406 131.902344 L 231.972656 125.480469 C 228.980469 124.042969 227.808594 126.382812 227.808594 126.382812 L 228.398438 132.367188 C 229.5625 133.769531 233.066406 131.902344 233.066406 131.902344 Z M 261.191406 118.273438 C 261.191406 118.273438 251.546875 142.675781 235.882812 146.59375 C 220.214844 150.507812 169.328125 127.550781 170.535156 121.828125 C 171.738281 116.105469 191.59375 99.894531 198.296875 96.582031 C 199.644531 95.914062 201.058594 95.488281 202.457031 95.238281 C 209.210938 90.390625 213.285156 95.976562 213.285156 95.976562 C 227.144531 98.6875 232.960938 91.410156 237.386719 92.539062 C 241.8125 93.671875 261.191406 118.273438 261.191406 118.273438 Z M 171.5 180.671875 C 176.019531 177.46875 180.472656 174.347656 183.898438 171.953125 C 181.382812 192.339844 179.039062 214.90625 178.914062 229.144531 C 178.640625 260.472656 151.582031 315.632812 151.578125 315.644531 C 151.578125 315.644531 138.265625 316.941406 127.421875 316.425781 C 116.574219 315.914062 97.894531 320.410156 78.613281 316.65625 C 59.332031 312.898438 103.921875 309.285156 116.574219 305.066406 C 129.230469 300.847656 144.292969 279.757812 152.726562 261.078125 C 160.363281 244.171875 166.027344 202.453125 171.5 180.671875 " fill-opacity="1" fill-rule="nonzero"/><path fill="#e3e0de" d="M 228.398438 84.058594 C 228.28125 81.492188 224.726562 75.695312 224.71875 75.6875 L 226.972656 85.25 L 226.058594 83.476562 L 225.335938 83.566406 L 224.71875 75.6875 C 216.507812 77.15625 207.246094 80.171875 202.65625 81.761719 C 202.613281 83.605469 202.492188 89.210938 202.453125 95.242188 C 204.410156 94.894531 206.328125 94.882812 208 95.015625 C 208.722656 99.210938 209.355469 103.019531 209.492188 104.246094 C 209.679688 105.9375 216.132812 115.085938 222.097656 123.238281 C 223.574219 125.25 225.679688 126.253906 227.808594 126.382812 C 227.8125 126.378906 228.984375 124.046875 231.972656 125.480469 C 233.851562 124.488281 235.347656 122.71875 235.867188 120.289062 C 237.335938 113.382812 238.65625 106.378906 238.550781 103.9375 C 238.316406 98.566406 228.515625 86.628906 228.398438 84.058594 Z M 262.121094 314.054688 C 259.554688 312.421875 257.101562 304.953125 257.101562 304.953125 C 255.003906 299.820312 255.003906 220.703125 254.070312 215.566406 C 253.132812 210.433594 245.65625 141.214844 245.65625 141.214844 L 242.085938 143.875 C 242.085938 143.875 246.367188 204.832031 247.535156 217.902344 C 248.699219 230.972656 249.902344 300.988281 252.683594 308.21875 C 252.683594 308.21875 257.335938 314.359375 259.90625 316.425781 C 262.46875 318.488281 265.71875 317.683594 267.691406 318.078125 C 269.671875 318.472656 280 322.550781 280 322.550781 L 285.113281 322.359375 C 285.113281 322.359375 274.140625 315.105469 271.339844 315.105469 C 268.539062 315.105469 264.6875 315.691406 262.121094 314.054688 Z M 217.894531 169.605469 C 217.894531 174.289062 216.261719 210.667969 215.851562 223.015625 C 215.441406 235.367188 215.09375 260.144531 214.160156 270.414062 C 213.476562 277.945312 212.082031 291.835938 211.382812 298.707031 C 211.132812 301.222656 209.652344 303.441406 207.4375 304.652344 C 204.378906 306.328125 200.054688 308.816406 197.46875 310.867188 C 193.144531 314.289062 191.207031 324.261719 191.207031 324.261719 L 197.46875 324.019531 C 197.46875 324.019531 200.390625 313.824219 205.90625 311.953125 C 211.421875 310.089844 217.195312 303.554688 217.195312 303.554688 C 217.894531 297.71875 225.128906 225.605469 225.363281 214.167969 C 225.597656 202.734375 227.699219 147.039062 227.699219 147.039062 L 220.332031 145.519531 C 220.332031 145.519531 217.894531 164.925781 217.894531 169.605469 Z M 232.417969 131.984375 C 232.417969 131.984375 230.25 130.359375 229.324219 132.292969 C 229.324219 132.292969 228.550781 133.808594 228.859375 135.308594 C 229.167969 136.808594 231.027344 137.382812 231.4375 139.234375 C 231.851562 141.089844 231.851562 141.089844 231.851562 141.089844 C 231.851562 141.089844 233.949219 136.953125 233.414062 135.308594 C 232.882812 133.660156 232.417969 131.984375 232.417969 131.984375 Z M 309.632812 67.6875 C 309.289062 66.957031 308.964844 66.222656 308.609375 65.496094 C 308.253906 64.773438 307.894531 64.054688 307.5 63.347656 C 307.472656 63.300781 307.414062 63.277344 307.359375 63.292969 C 307.300781 63.3125 307.269531 63.378906 307.289062 63.441406 C 307.550781 64.207031 307.84375 64.953125 308.148438 65.703125 C 308.445312 66.453125 308.773438 67.1875 309.085938 67.929688 C 309.425781 68.664062 309.75 69.398438 310.101562 70.125 C 310.453125 70.851562 310.808594 71.574219 311.203125 72.28125 C 311.230469 72.335938 311.300781 72.367188 311.367188 72.34375 C 311.4375 72.320312 311.472656 72.242188 311.449219 72.171875 C 311.1875 71.40625 310.886719 70.65625 310.582031 69.910156 C 310.277344 69.164062 309.953125 68.429688 309.632812 67.6875 Z M 306.109375 62.074219 C 306.109375 62.015625 306.0625 61.96875 306.003906 61.964844 C 305.9375 61.960938 305.886719 62.011719 305.882812 62.074219 C 305.808594 63.734375 305.773438 65.394531 305.742188 67.054688 L 305.699219 72.035156 L 305.730469 77.015625 C 305.757812 78.675781 305.789062 80.335938 305.859375 82 C 305.863281 82.066406 305.921875 82.125 305.992188 82.128906 C 306.066406 82.128906 306.128906 82.074219 306.132812 82 C 306.203125 80.335938 306.234375 78.675781 306.261719 77.015625 L 306.296875 72.035156 L 306.25 67.054688 C 306.21875 65.394531 306.183594 63.734375 306.109375 62.074219 Z M 312.710938 55.664062 C 312.675781 55.601562 312.597656 55.570312 312.527344 55.605469 C 311.429688 56.136719 310.355469 56.710938 309.277344 57.285156 C 308.308594 57.808594 307.347656 58.34375 306.382812 58.882812 C 306.53125 57.585938 306.652344 56.285156 306.769531 54.984375 C 306.898438 53.539062 306.992188 52.089844 307.105469 50.640625 L 307.363281 46.296875 C 307.4375 44.847656 307.503906 43.398438 307.527344 41.941406 C 307.53125 41.875 307.480469 41.8125 307.410156 41.804688 C 307.335938 41.796875 307.265625 41.847656 307.257812 41.925781 C 307.089844 43.367188 306.960938 44.8125 306.835938 46.261719 L 306.511719 50.601562 C 306.429688 52.050781 306.332031 53.5 306.265625 54.949219 C 306.203125 56.289062 306.144531 57.628906 306.121094 58.96875 C 305.097656 58.660156 304.082031 58.335938 303.054688 58.046875 C 301.964844 57.734375 300.871094 57.425781 299.769531 57.148438 C 299.710938 57.136719 299.652344 57.167969 299.632812 57.21875 C 299.613281 57.277344 299.640625 57.347656 299.699219 57.367188 C 300.761719 57.777344 301.832031 58.152344 302.902344 58.523438 C 303.976562 58.898438 305.054688 59.234375 306.132812 59.59375 C 306.207031 59.617188 306.292969 59.613281 306.363281 59.574219 L 306.367188 59.570312 C 307.429688 58.972656 308.488281 58.363281 309.542969 57.75 C 310.589844 57.128906 311.636719 56.503906 312.664062 55.839844 C 312.71875 55.804688 312.738281 55.730469 312.710938 55.664062 Z M 300.605469 56.273438 C 300.550781 56.242188 300.527344 56.179688 300.539062 56.121094 C 300.6875 55.558594 300.875 55.015625 301.0625 54.476562 C 301.25 53.933594 301.460938 53.402344 301.675781 52.867188 C 301.894531 52.339844 302.113281 51.808594 302.359375 51.289062 C 302.597656 50.769531 302.847656 50.253906 303.128906 49.746094 C 303.160156 49.695312 303.230469 49.671875 303.285156 49.703125 C 303.332031 49.730469 303.355469 49.785156 303.339844 49.835938 C 303.195312 50.394531 303.011719 50.9375 302.828125 51.480469 C 302.644531 52.027344 302.4375 52.558594 302.230469 53.09375 C 302.011719 53.625 301.796875 54.152344 301.554688 54.675781 C 301.316406 55.195312 301.074219 55.714844 300.792969 56.21875 C 300.757812 56.285156 300.675781 56.3125 300.605469 56.273438 " fill-opacity="1" fill-rule="nonzero"/><g clip-path="url(#f537e23404)"><path fill="#e49f8a" d="M 205.78125 82.421875 L 205.769531 82.351562 C 205.769531 82.347656 204.359375 81.902344 204.070312 82.953125 C 203.777344 84 205.222656 84.992188 205.488281 86.160156 C 205.757812 87.328125 206.703125 87.605469 206.703125 87.605469 L 206.691406 87.539062 Z M 114.871094 165.710938 C 114.871094 165.710938 105.230469 161.101562 102.78125 160.433594 C 100.332031 159.765625 96.132812 158.933594 96.425781 160.4375 C 96.710938 161.90625 102.402344 162.601562 102.402344 162.601562 L 105.964844 164.707031 C 105.964844 164.707031 100.398438 165.265625 99.734375 165.710938 C 99.0625 166.152344 94.753906 169.734375 95.253906 170 C 97.625 171.265625 101.066406 168.269531 101.066406 168.269531 L 105.1875 168.269531 L 102.292969 172.835938 L 100.960938 175.125 C 100.738281 175.507812 101.074219 175.980469 101.507812 175.890625 C 102.484375 175.679688 103.871094 175.121094 104.5 173.613281 C 105.519531 171.164062 106.96875 170.496094 106.96875 170.496094 C 106.96875 170.496094 105.632812 173.945312 105.519531 174.617188 C 105.410156 175.28125 105.480469 177.703125 105.816406 177.703125 C 107.039062 177.703125 106.96875 174.839844 106.96875 174.839844 L 109.667969 171.832031 C 109.667969 171.832031 113.648438 169.9375 113.980469 171.164062 C 114.3125 172.390625 116.429688 175.503906 118.101562 175.726562 C 119.769531 175.949219 117.433594 170.160156 117.433594 170.160156 L 120.882812 171.277344 C 120.882812 171.277344 121.441406 166.378906 114.871094 165.710938 Z M 310.894531 70.632812 C 311.152344 70.265625 311.378906 69.890625 311.574219 69.511719 C 311.425781 69.339844 311.265625 69.160156 311.085938 68.957031 L 312.1875 59.300781 L 312.265625 58.609375 L 312.269531 58.574219 C 310.269531 60.015625 305.765625 63.628906 303.070312 65.109375 C 301.199219 66.132812 302.414062 73.011719 303.472656 77.628906 C 303.542969 77.570312 303.613281 77.511719 303.683594 77.457031 L 305.277344 81.125 Z M 311.71875 84.160156 C 311.71875 84.160156 308.945312 141.757812 308.03125 159.707031 C 309.148438 159.445312 310.125 159.359375 310.425781 159.738281 C 311.25 160.773438 310.359375 162.742188 310.359375 162.742188 C 310.359375 162.742188 312.46875 163.703125 311.433594 165.242188 C 310.398438 166.777344 310.160156 167.570312 309.871094 168.625 C 309.578125 169.671875 309.472656 169.707031 308.078125 170.53125 C 307.984375 170.589844 307.871094 170.648438 307.753906 170.707031 C 307.734375 201.152344 309.789062 302.554688 309.789062 302.554688 L 309.734375 311.941406 L 306.660156 311.941406 C 306.660156 311.941406 301.894531 200.992188 302.757812 192.273438 C 303.019531 189.632812 303.304688 181.785156 303.515625 171.867188 C 302.761719 171.882812 302.070312 171.753906 301.578125 171.394531 C 300.949219 170.9375 300.277344 170 299.804688 168.921875 C 298.246094 168.3125 296.855469 166.664062 296.855469 164.757812 C 296.855469 164.757812 300.351562 158.820312 302.101562 159.425781 C 302.550781 159.582031 303.117188 159.8125 303.714844 160.089844 C 303.988281 138.800781 303.863281 114.105469 302.652344 108.457031 C 300.929688 100.40625 299.46875 90.449219 299.195312 85.269531 C 299.195312 85.269531 296.625 70.355469 296.535156 68.792969 C 296.445312 67.226562 300.585938 60.324219 303.988281 58.941406 C 307.394531 57.5625 311.449219 51.699219 312.59375 51.472656 C 313.742188 51.242188 314.851562 53.789062 314.851562 53.789062 C 314.851562 53.789062 314.390625 57.101562 312.59375 58.347656 C 312.527344 58.390625 312.453125 58.445312 312.375 58.5 C 312.464844 58.605469 312.558594 58.714844 312.652344 58.835938 C 313.777344 59.542969 315.539062 61.09375 315.632812 63.886719 C 315.769531 68.007812 311.71875 84.160156 311.71875 84.160156 Z M 299.152344 57.378906 L 301.21875 52.390625 L 303.710938 46.382812 C 303.4375 46.566406 303.160156 46.742188 302.890625 46.894531 C 301.902344 47.453125 301.265625 48.472656 301.210938 49.605469 L 301.074219 52.324219 C 300.308594 51.988281 299.640625 51.722656 299.152344 51.582031 C 296.304688 50.753906 299.652344 54.757812 299.152344 57.378906 Z M 299.261719 58.308594 L 299.152344 57.378906 C 299.085938 57.714844 299.132812 58.019531 299.261719 58.308594 Z M 309.972656 43.355469 C 309.972656 43.355469 309.628906 43.433594 309.125 43.570312 L 309.285156 44.128906 C 309.683594 43.683594 309.972656 43.355469 309.972656 43.355469 Z M 208.382812 79.890625 L 210.835938 79.121094 C 209.988281 79.371094 209.167969 79.628906 208.378906 79.875 C 208.378906 79.878906 208.378906 79.886719 208.382812 79.890625 Z M 226.972656 85.25 L 226.058594 83.476562 L 222.238281 83.96875 C 222.238281 83.96875 221.511719 84.292969 220.695312 84.640625 C 219.878906 84.992188 219.0625 87.957031 219.0625 87.957031 L 211.125 79.976562 L 210.835938 79.121094 C 215.113281 77.835938 220.082031 76.515625 224.71875 75.6875 L 226.972656 85.25 " fill-opacity="1" fill-rule="nonzero"/></g><g clip-path="url(#94f97015cf)"><path fill="#2b292b" d="M 289.558594 327.125 C 291.695312 329.164062 263.859375 326.269531 262.199219 326.097656 C 262.148438 326.09375 262.121094 326.089844 262.121094 326.089844 C 262.121094 326.089844 262.847656 318.472656 266.355469 317.953125 C 266.761719 317.894531 267.207031 317.921875 267.691406 318.078125 C 269.816406 318.757812 274.070312 320.253906 278.289062 321.882812 C 278.835938 322.09375 279.378906 322.304688 279.917969 322.519531 C 280.160156 322.613281 280.394531 322.707031 280.632812 322.800781 C 284.816406 324.476562 288.542969 326.15625 289.558594 327.125 Z M 214.34375 324.308594 C 214.34375 324.308594 206.929688 337.476562 203.195312 337.132812 C 199.667969 336.808594 197.695312 325.300781 197.488281 324.019531 C 197.484375 324.003906 197.484375 323.992188 197.480469 323.976562 C 197.472656 323.929688 197.46875 323.898438 197.46875 323.898438 C 197.484375 323.886719 197.5 323.875 197.515625 323.863281 C 207.621094 316.316406 214.328125 324.289062 214.34375 324.308594 Z M 114.242188 171.363281 L 114.246094 171.375 C 114.261719 171.445312 114.214844 171.519531 114.140625 171.535156 C 114.128906 171.539062 114.121094 171.53125 114.113281 171.53125 C 114.066406 171.535156 114.019531 171.515625 113.992188 171.472656 C 113.863281 171.261719 113.742188 171.042969 113.632812 170.820312 C 113.558594 170.679688 113.488281 170.539062 113.421875 170.394531 C 113.238281 170.027344 113.085938 169.652344 112.929688 169.273438 C 112.785156 168.894531 112.636719 168.515625 112.515625 168.125 C 112.390625 167.738281 112.273438 167.347656 112.191406 166.945312 C 112.175781 166.882812 112.21875 166.824219 112.28125 166.808594 C 112.328125 166.800781 112.375 166.820312 112.402344 166.859375 L 112.40625 166.867188 C 112.625 167.21875 112.8125 167.578125 112.988281 167.945312 C 113.171875 168.308594 113.328125 168.679688 113.484375 169.050781 C 113.636719 169.425781 113.78125 169.800781 113.90625 170.1875 C 114.035156 170.574219 114.15625 170.960938 114.242188 171.363281 Z M 108.003906 169.078125 C 108.121094 169.691406 108.25 170.304688 108.347656 170.929688 C 108.359375 171.003906 108.308594 171.074219 108.234375 171.085938 C 108.167969 171.09375 108.109375 171.058594 108.085938 171 C 107.847656 170.410156 107.660156 169.808594 107.488281 169.203125 C 107.3125 168.59375 107.171875 167.976562 107.046875 167.355469 C 106.925781 166.734375 106.816406 166.113281 106.746094 165.484375 C 106.671875 164.859375 106.613281 164.230469 106.601562 163.59375 C 106.601562 163.53125 106.65625 163.480469 106.71875 163.476562 C 106.773438 163.476562 106.820312 163.515625 106.832031 163.5625 C 106.984375 164.175781 107.113281 164.789062 107.246094 165.402344 L 107.632812 167.238281 Z M 224.726562 86.488281 L 226 87.058594 C 226.425781 87.234375 226.847656 87.417969 227.277344 87.578125 C 227.703125 87.746094 228.140625 87.894531 228.574219 88.046875 L 229.898438 88.480469 C 229.972656 88.503906 230.007812 88.582031 229.984375 88.652344 C 229.964844 88.710938 229.910156 88.746094 229.851562 88.746094 C 229.371094 88.734375 228.898438 88.660156 228.433594 88.558594 C 227.964844 88.457031 227.507812 88.308594 227.0625 88.136719 C 226.617188 87.957031 226.179688 87.753906 225.769531 87.507812 C 225.359375 87.265625 224.960938 86.996094 224.601562 86.679688 C 224.554688 86.640625 224.550781 86.566406 224.59375 86.515625 C 224.625 86.480469 224.683594 86.46875 224.726562 86.488281 Z M 223.738281 85.917969 C 223.789062 85.945312 223.816406 86.007812 223.808594 86.066406 L 223.765625 86.28125 C 223.761719 86.316406 223.734375 86.34375 223.707031 86.359375 C 223.410156 87.21875 222.914062 88.011719 222.269531 88.660156 C 221.558594 89.367188 220.6875 89.925781 219.726562 90.191406 C 219.65625 90.210938 219.578125 90.167969 219.558594 90.09375 C 219.542969 90.03125 219.570312 89.96875 219.621094 89.9375 C 220.441406 89.453125 221.191406 88.898438 221.84375 88.238281 C 222.5 87.578125 223.058594 86.832031 223.527344 86 L 223.546875 85.96875 C 223.585938 85.902344 223.667969 85.878906 223.738281 85.917969 Z M 232.617188 131.683594 C 232.660156 131.75 232.644531 131.835938 232.582031 131.878906 C 232.535156 131.910156 232.476562 131.910156 232.429688 131.882812 L 232.429688 131.878906 C 232.152344 131.714844 231.871094 131.589844 231.578125 131.519531 C 231.558594 131.515625 231.542969 131.515625 231.523438 131.511719 C 231.25 131.457031 230.972656 131.433594 230.703125 131.46875 C 230.277344 131.523438 229.867188 131.703125 229.503906 131.984375 C 229.375 132.082031 229.25 132.195312 229.132812 132.320312 C 229.089844 132.367188 229.011719 132.371094 228.964844 132.328125 C 228.929688 132.292969 228.921875 132.246094 228.9375 132.203125 C 229.175781 131.511719 229.859375 130.988281 230.621094 130.878906 C 231.003906 130.828125 231.394531 130.871094 231.742188 131.015625 C 232.09375 131.160156 232.40625 131.382812 232.617188 131.683594 Z M 231.671875 129.605469 C 231.886719 129.652344 232.085938 129.75 232.289062 129.820312 C 232.449219 129.90625 232.605469 129.996094 232.757812 130.089844 C 232.785156 130.109375 232.816406 130.121094 232.84375 130.140625 C 232.910156 130.183594 232.925781 130.265625 232.886719 130.328125 C 232.867188 130.359375 232.839844 130.375 232.804688 130.382812 C 232.785156 130.390625 232.761719 130.394531 232.738281 130.386719 L 232.726562 130.386719 C 232.332031 130.285156 231.953125 130.171875 231.566406 130.125 C 231.183594 130.066406 230.800781 130.066406 230.429688 130.101562 C 229.683594 130.1875 228.960938 130.515625 228.347656 131.007812 L 228.335938 131.019531 C 228.316406 131.035156 228.292969 131.039062 228.265625 131.039062 C 228.230469 131.039062 228.199219 131.03125 228.175781 131 C 228.144531 130.960938 228.144531 130.910156 228.167969 130.867188 C 228.191406 130.832031 228.214844 130.800781 228.242188 130.765625 C 228.464844 130.429688 228.761719 130.167969 229.101562 129.953125 C 229.476562 129.71875 229.910156 129.566406 230.355469 129.507812 C 230.796875 129.464844 231.25 129.476562 231.671875 129.605469 Z M 229.660156 124.726562 C 230.105469 124.65625 230.546875 124.714844 230.964844 124.808594 C 231.167969 124.875 231.371094 124.9375 231.570312 125.011719 C 231.757812 125.109375 231.949219 125.195312 232.128906 125.300781 C 232.152344 125.3125 232.164062 125.339844 232.175781 125.363281 C 232.195312 125.402344 232.203125 125.445312 232.179688 125.488281 C 232.148438 125.539062 232.089844 125.5625 232.035156 125.550781 L 232.027344 125.550781 C 232.011719 125.550781 232 125.546875 231.984375 125.542969 C 231.601562 125.46875 231.234375 125.382812 230.863281 125.328125 C 230.480469 125.304688 230.101562 125.257812 229.742188 125.320312 C 229.382812 125.363281 229.035156 125.476562 228.722656 125.660156 C 228.414062 125.84375 228.132812 126.117188 227.917969 126.421875 L 227.910156 126.4375 C 227.886719 126.46875 227.855469 126.480469 227.820312 126.480469 C 227.796875 126.480469 227.769531 126.480469 227.75 126.464844 C 227.714844 126.445312 227.703125 126.40625 227.703125 126.371094 C 227.703125 126.363281 227.699219 126.351562 227.703125 126.34375 C 227.816406 125.90625 228.078125 125.535156 228.429688 125.25 C 228.777344 124.957031 229.222656 124.792969 229.660156 124.726562 Z M 238.714844 161.90625 C 238.78125 161.953125 238.796875 162.035156 238.75 162.097656 C 238.714844 162.152344 238.652344 162.167969 238.59375 162.148438 C 238.085938 161.96875 237.59375 161.753906 237.105469 161.53125 C 236.617188 161.316406 236.140625 161.074219 235.664062 160.832031 C 235.636719 160.816406 235.609375 160.800781 235.578125 160.785156 C 235.578125 160.9375 235.582031 161.089844 235.582031 161.242188 C 235.566406 162.863281 235.519531 164.480469 235.414062 166.097656 C 235.410156 166.171875 235.347656 166.226562 235.269531 166.222656 C 235.199219 166.21875 235.144531 166.15625 235.144531 166.089844 L 235.050781 161.246094 C 235.046875 161.125 235.046875 161.007812 235.042969 160.886719 C 234.789062 161.210938 234.539062 161.535156 234.265625 161.847656 C 233.953125 162.210938 233.636719 162.570312 233.289062 162.90625 C 233.234375 162.960938 233.148438 162.957031 233.09375 162.902344 C 233.050781 162.859375 233.042969 162.792969 233.074219 162.742188 C 233.308594 162.320312 233.574219 161.921875 233.84375 161.523438 C 234.113281 161.128906 234.402344 160.746094 234.695312 160.367188 C 234.703125 160.351562 234.714844 160.339844 234.726562 160.324219 C 234.570312 160.238281 234.410156 160.152344 234.253906 160.058594 C 233.792969 159.789062 233.332031 159.511719 232.890625 159.203125 C 232.839844 159.164062 232.828125 159.09375 232.863281 159.042969 C 232.890625 159 232.949219 158.984375 232.996094 159 C 233.503906 159.175781 233.996094 159.390625 234.488281 159.609375 C 234.667969 159.683594 234.84375 159.769531 235.019531 159.855469 C 234.992188 158.703125 234.960938 157.558594 234.914062 156.40625 C 234.878906 155.089844 234.8125 153.769531 234.75 152.453125 C 234.742188 152.464844 234.734375 152.472656 234.726562 152.480469 C 234.355469 152.921875 233.984375 153.359375 233.59375 153.777344 C 233.207031 154.199219 232.8125 154.617188 232.390625 155.011719 C 232.335938 155.0625 232.25 155.058594 232.195312 155.003906 C 232.15625 154.957031 232.148438 154.890625 232.183594 154.835938 C 232.496094 154.351562 232.839844 153.890625 233.191406 153.4375 C 233.535156 152.980469 233.898438 152.539062 234.265625 152.097656 C 234.410156 151.929688 234.5625 151.769531 234.710938 151.597656 C 234.710938 151.589844 234.710938 151.582031 234.710938 151.570312 L 234.695312 151.316406 C 234.503906 151.132812 234.3125 150.949219 234.132812 150.753906 C 233.722656 150.316406 233.324219 149.859375 232.980469 149.367188 C 232.945312 149.316406 232.957031 149.242188 233.007812 149.203125 C 233.050781 149.175781 233.109375 149.179688 233.148438 149.210938 L 234.484375 150.390625 C 234.539062 150.4375 234.597656 150.484375 234.65625 150.535156 L 234.464844 146.859375 L 234.457031 146.734375 C 234.453125 146.671875 234.5 146.617188 234.5625 146.613281 C 234.625 146.609375 234.675781 146.652344 234.683594 146.710938 C 234.6875 146.75 234.691406 146.785156 234.699219 146.820312 C 234.890625 148.199219 235.035156 149.578125 235.160156 150.960938 C 235.183594 150.980469 235.203125 151 235.226562 151.019531 C 235.289062 150.953125 235.347656 150.878906 235.40625 150.8125 C 235.796875 150.394531 236.191406 149.976562 236.621094 149.585938 C 236.667969 149.542969 236.738281 149.546875 236.78125 149.59375 C 236.816406 149.632812 236.820312 149.691406 236.792969 149.730469 C 236.480469 150.21875 236.140625 150.679688 235.796875 151.136719 C 235.738281 151.210938 235.679688 151.28125 235.621094 151.355469 C 235.695312 151.414062 235.761719 151.476562 235.832031 151.53125 C 236.285156 151.910156 236.75 152.273438 237.210938 152.640625 L 238.621094 153.722656 C 238.679688 153.769531 238.691406 153.855469 238.644531 153.917969 C 238.605469 153.964844 238.535156 153.984375 238.476562 153.953125 C 237.929688 153.703125 237.410156 153.398438 236.90625 153.070312 C 236.398438 152.746094 235.917969 152.378906 235.449219 151.992188 C 235.386719 151.9375 235.320312 151.875 235.253906 151.820312 C 235.246094 151.828125 235.242188 151.832031 235.234375 151.84375 C 235.359375 153.355469 235.4375 154.871094 235.507812 156.386719 C 235.539062 157.359375 235.558594 158.328125 235.570312 159.300781 C 235.585938 159.285156 235.59375 159.269531 235.605469 159.257812 C 235.921875 158.898438 236.238281 158.539062 236.589844 158.203125 C 236.636719 158.160156 236.710938 158.160156 236.753906 158.207031 C 236.789062 158.246094 236.792969 158.300781 236.769531 158.34375 C 236.539062 158.769531 236.273438 159.167969 236.007812 159.566406 C 235.878906 159.761719 235.738281 159.941406 235.597656 160.132812 C 235.710938 160.1875 235.824219 160.242188 235.9375 160.296875 C 236.410156 160.542969 236.886719 160.789062 237.347656 161.058594 C 237.8125 161.328125 238.273438 161.601562 238.714844 161.90625 Z M 192.488281 44.839844 C 192.488281 44.800781 192.503906 44.769531 192.53125 44.746094 L 192.535156 44.742188 C 192.554688 44.726562 192.570312 44.710938 192.589844 44.695312 C 192.71875 44.582031 192.847656 44.480469 192.96875 44.371094 C 193.101562 44.246094 193.234375 44.128906 193.355469 44 C 193.484375 43.875 193.59375 43.738281 193.71875 43.605469 C 193.839844 43.46875 193.949219 43.320312 194.078125 43.167969 L 194.082031 43.167969 C 194.136719 43.105469 194.226562 43.101562 194.285156 43.152344 C 194.320312 43.179688 194.335938 43.222656 194.335938 43.261719 C 194.328125 43.484375 194.261719 43.695312 194.164062 43.894531 C 194.070312 44.09375 193.933594 44.269531 193.777344 44.421875 C 193.617188 44.574219 193.441406 44.707031 193.242188 44.796875 C 193.105469 44.859375 192.964844 44.902344 192.816406 44.929688 C 192.75 44.941406 192.683594 44.957031 192.613281 44.957031 C 192.546875 44.960938 192.488281 44.90625 192.488281 44.839844 Z M 203.09375 75.59375 C 203.09375 75.589844 203.085938 75.589844 203.085938 75.585938 C 203.074219 75.523438 203.105469 75.464844 203.152344 75.4375 C 203.488281 75.25 203.832031 75.089844 204.179688 74.9375 C 204.242188 74.910156 204.300781 74.878906 204.363281 74.851562 C 204.769531 74.667969 205.191406 74.511719 205.605469 74.351562 C 206.027344 74.203125 206.445312 74.054688 206.878906 73.933594 C 207.304688 73.804688 207.738281 73.679688 208.179688 73.59375 C 208.246094 73.582031 208.304688 73.625 208.316406 73.6875 C 208.328125 73.738281 208.304688 73.785156 208.261719 73.808594 C 207.867188 74.03125 207.460938 74.222656 207.054688 74.40625 C 206.648438 74.59375 206.230469 74.753906 205.816406 74.914062 C 205.394531 75.066406 204.976562 75.21875 204.546875 75.347656 C 204.429688 75.386719 204.308594 75.417969 204.1875 75.453125 C 203.878906 75.542969 203.566406 75.628906 203.25 75.691406 C 203.179688 75.707031 203.113281 75.660156 203.09375 75.59375 Z M 205.019531 56.511719 C 204.96875 56.476562 204.957031 56.402344 204.992188 56.347656 C 205.015625 56.3125 205.054688 56.292969 205.097656 56.296875 L 205.820312 56.335938 C 206.054688 56.339844 206.285156 56.355469 206.515625 56.347656 C 206.75 56.347656 206.980469 56.332031 207.214844 56.324219 L 207.933594 56.273438 C 208.011719 56.269531 208.074219 56.328125 208.082031 56.40625 C 208.085938 56.457031 208.058594 56.503906 208.019531 56.53125 C 207.800781 56.683594 207.554688 56.777344 207.300781 56.84375 C 207.046875 56.917969 206.78125 56.945312 206.515625 56.945312 C 206.253906 56.9375 205.992188 56.910156 205.738281 56.832031 C 205.484375 56.761719 205.238281 56.664062 205.019531 56.511719 Z M 203.796875 56.605469 C 203.761719 56.554688 203.777344 56.480469 203.832031 56.445312 C 203.847656 56.4375 203.863281 56.4375 203.878906 56.433594 C 203.910156 56.429688 203.941406 56.433594 203.96875 56.453125 C 204.324219 56.742188 204.6875 57.011719 205.074219 57.238281 C 205.460938 57.460938 205.859375 57.664062 206.273438 57.820312 C 206.6875 57.980469 207.117188 58.097656 207.550781 58.191406 C 207.988281 58.28125 208.4375 58.328125 208.894531 58.351562 C 208.96875 58.355469 209.027344 58.421875 209.023438 58.496094 C 209.023438 58.558594 208.976562 58.609375 208.921875 58.621094 C 208.453125 58.738281 207.960938 58.757812 207.476562 58.714844 C 206.988281 58.675781 206.511719 58.550781 206.058594 58.375 C 205.605469 58.195312 205.171875 57.957031 204.789062 57.65625 C 204.441406 57.386719 204.136719 57.070312 203.882812 56.714844 C 203.859375 56.675781 203.824219 56.644531 203.796875 56.605469 Z M 211.066406 72.304688 C 211.03125 72.246094 211.042969 72.167969 211.097656 72.125 C 212.105469 71.34375 213.140625 70.59375 214.214844 69.894531 C 215.289062 69.195312 216.417969 68.566406 217.59375 68.035156 C 218.785156 67.53125 220.023438 67.121094 221.308594 66.917969 C 222.460938 66.734375 223.644531 66.71875 224.796875 66.90625 C 224.921875 66.929688 225.046875 66.941406 225.171875 66.964844 C 225.234375 66.980469 225.273438 67.039062 225.261719 67.101562 C 225.25 67.160156 225.195312 67.195312 225.136719 67.191406 C 225.050781 67.183594 224.96875 67.183594 224.882812 67.179688 C 223.710938 67.09375 222.539062 67.179688 221.398438 67.417969 C 220.175781 67.671875 218.976562 68.0625 217.835938 68.582031 C 216.683594 69.078125 215.582031 69.699219 214.496094 70.34375 C 213.40625 70.988281 212.339844 71.683594 211.253906 72.347656 C 211.191406 72.386719 211.105469 72.367188 211.066406 72.304688 Z M 206.585938 86.777344 C 206.777344 87.730469 207.019531 88.671875 207.273438 89.613281 C 207.523438 90.550781 207.808594 91.480469 208.09375 92.417969 C 208.117188 92.488281 208.074219 92.5625 208.003906 92.585938 C 207.9375 92.605469 207.871094 92.574219 207.839844 92.515625 C 207.671875 92.15625 207.523438 91.792969 207.375 91.425781 C 207.15625 90.878906 206.949219 90.324219 206.765625 89.761719 C 206.492188 88.921875 206.273438 88.066406 206.074219 87.207031 C 206.050781 87.105469 206.023438 87.003906 206 86.902344 C 205.808594 85.9375 205.640625 84.960938 205.542969 83.980469 C 205.488281 83.414062 205.449219 82.847656 205.429688 82.277344 C 205.414062 81.859375 205.402344 81.445312 205.414062 81.03125 C 205.414062 80.976562 205.457031 80.933594 205.511719 80.925781 C 205.519531 80.925781 205.523438 80.917969 205.527344 80.917969 C 205.585938 80.917969 205.632812 80.964844 205.640625 81.019531 C 205.761719 81.960938 205.882812 82.898438 206.03125 83.828125 C 206.035156 83.839844 206.035156 83.851562 206.039062 83.863281 C 206.039062 83.882812 206.042969 83.898438 206.042969 83.917969 C 206.144531 84.515625 206.25 85.113281 206.367188 85.710938 C 206.371094 85.722656 206.371094 85.738281 206.375 85.753906 C 206.441406 86.09375 206.507812 86.441406 206.585938 86.777344 Z M 259.886719 154.171875 C 259.828125 154.128906 259.816406 154.046875 259.859375 153.992188 C 259.878906 153.964844 259.902344 153.953125 259.929688 153.945312 C 260.085938 153.902344 260.242188 153.894531 260.390625 153.890625 C 260.546875 153.886719 260.695312 153.90625 260.839844 153.929688 C 260.984375 153.960938 261.132812 153.992188 261.273438 154.046875 C 261.414062 154.101562 261.550781 154.160156 261.6875 154.257812 C 261.75 154.308594 261.765625 154.402344 261.714844 154.46875 C 261.695312 154.496094 261.667969 154.515625 261.632812 154.527344 C 261.476562 154.566406 261.324219 154.570312 261.171875 154.566406 C 261.019531 154.570312 260.875 154.542969 260.726562 154.519531 C 260.582031 154.484375 260.4375 154.449219 260.296875 154.390625 C 260.15625 154.332031 260.015625 154.269531 259.886719 154.171875 Z M 261.617188 155.792969 C 261.933594 155.539062 262.335938 155.386719 262.75 155.351562 C 262.820312 155.347656 262.890625 155.351562 262.960938 155.355469 C 263.671875 155.386719 264.347656 155.796875 264.648438 156.402344 C 264.667969 156.4375 264.6875 156.472656 264.707031 156.511719 C 264.730469 156.570312 264.699219 156.640625 264.644531 156.664062 C 264.597656 156.683594 264.546875 156.671875 264.515625 156.636719 C 264.097656 156.214844 263.5625 155.988281 263.035156 155.960938 C 262.953125 155.957031 262.871094 155.941406 262.792969 155.949219 C 262.492188 155.96875 262.195312 156.074219 261.921875 156.230469 C 261.652344 156.390625 261.410156 156.613281 261.207031 156.886719 C 261.160156 156.949219 261.074219 156.960938 261.015625 156.917969 C 260.96875 156.882812 260.949219 156.824219 260.960938 156.773438 C 261.054688 156.390625 261.300781 156.046875 261.617188 155.792969 Z M 273.203125 163.410156 C 273.179688 163.359375 273.199219 163.296875 273.242188 163.265625 C 273.992188 162.765625 274.789062 162.335938 275.609375 161.957031 C 276.425781 161.578125 277.277344 161.269531 278.136719 160.992188 C 279.003906 160.742188 279.882812 160.523438 280.773438 160.382812 C 281.664062 160.238281 282.566406 160.152344 283.464844 160.152344 C 283.542969 160.152344 283.601562 160.210938 283.601562 160.285156 C 283.601562 160.355469 283.554688 160.410156 283.488281 160.421875 C 282.609375 160.5625 281.734375 160.714844 280.871094 160.902344 C 280.007812 161.09375 279.152344 161.300781 278.308594 161.566406 C 277.460938 161.804688 276.628906 162.109375 275.804688 162.425781 C 274.976562 162.742188 274.167969 163.097656 273.355469 163.464844 C 273.296875 163.492188 273.230469 163.46875 273.203125 163.410156 Z M 145.210938 155.664062 C 145.207031 155.617188 145.242188 155.574219 145.285156 155.554688 C 145.695312 155.402344 146.117188 155.285156 146.539062 155.175781 C 146.960938 155.058594 147.386719 154.972656 147.8125 154.882812 C 148.238281 154.800781 148.667969 154.722656 149.101562 154.667969 C 149.53125 154.613281 149.964844 154.5625 150.40625 154.550781 C 150.480469 154.550781 150.546875 154.609375 150.546875 154.683594 C 150.546875 154.742188 150.511719 154.796875 150.457031 154.816406 C 150.042969 154.96875 149.621094 155.082031 149.199219 155.191406 C 148.777344 155.300781 148.351562 155.386719 147.925781 155.46875 C 147.496094 155.546875 147.070312 155.621094 146.636719 155.671875 C 146.203125 155.722656 145.769531 155.769531 145.328125 155.78125 C 145.265625 155.78125 145.210938 155.730469 145.210938 155.664062 Z M 135.554688 158.050781 C 135.519531 158.003906 135.527344 157.933594 135.570312 157.894531 C 136.851562 156.765625 138.421875 155.898438 140.15625 155.597656 C 140.585938 155.519531 141.027344 155.515625 141.460938 155.492188 C 141.898438 155.519531 142.339844 155.515625 142.769531 155.601562 C 143.632812 155.710938 144.46875 155.96875 145.28125 156.25 C 146.890625 156.863281 148.402344 157.652344 149.925781 158.367188 C 151.445312 159.09375 153.011719 159.707031 154.664062 159.976562 L 154.667969 159.976562 C 154.742188 159.988281 154.792969 160.058594 154.78125 160.136719 C 154.769531 160.207031 154.703125 160.25 154.636719 160.246094 C 152.914062 160.113281 151.261719 159.539062 149.707031 158.851562 C 148.144531 158.171875 146.644531 157.382812 145.070312 156.8125 C 143.519531 156.222656 141.863281 155.882812 140.230469 156.097656 C 138.601562 156.320312 137.0625 157.078125 135.714844 158.074219 C 135.664062 158.113281 135.59375 158.101562 135.554688 158.050781 Z M 190.683594 155.226562 C 190.789062 153.667969 190.824219 152.113281 190.765625 150.558594 C 190.703125 149.007812 190.5625 147.457031 190.3125 145.925781 C 190.082031 144.390625 189.738281 142.878906 189.324219 141.378906 C 188.90625 139.882812 188.394531 138.410156 187.816406 136.960938 C 187.792969 136.902344 187.820312 136.835938 187.878906 136.8125 C 187.933594 136.789062 187.996094 136.8125 188.023438 136.867188 C 188.738281 138.265625 189.328125 139.734375 189.808594 141.234375 C 190.289062 142.738281 190.636719 144.28125 190.902344 145.835938 C 191.136719 147.394531 191.28125 148.972656 191.292969 150.546875 C 191.304688 152.125 191.203125 153.703125 190.957031 155.257812 C 190.941406 155.328125 190.875 155.378906 190.800781 155.367188 C 190.730469 155.355469 190.679688 155.292969 190.683594 155.226562 Z M 307.652344 301.625 C 307.660156 301.71875 307.644531 301.785156 307.621094 301.847656 C 307.597656 301.914062 307.558594 301.960938 307.519531 302.007812 C 307.472656 302.046875 307.425781 302.089844 307.359375 302.109375 C 307.292969 302.136719 307.226562 302.160156 307.128906 302.152344 C 307.042969 302.148438 306.972656 302.082031 306.960938 302 C 306.949219 301.902344 306.96875 301.835938 306.988281 301.765625 C 307.003906 301.699219 307.042969 301.648438 307.078125 301.601562 C 307.125 301.554688 307.167969 301.511719 307.230469 301.488281 C 307.292969 301.460938 307.359375 301.4375 307.453125 301.4375 C 307.558594 301.441406 307.640625 301.523438 307.652344 301.625 Z M 309.855469 292.582031 C 309.933594 293.230469 309.914062 293.886719 309.828125 294.539062 C 309.789062 294.855469 309.722656 295.167969 309.648438 295.480469 C 309.566406 295.804688 309.464844 296.128906 309.351562 296.441406 C 309.117188 297.054688 308.824219 297.652344 308.460938 298.195312 C 308.101562 298.746094 307.683594 299.257812 307.199219 299.691406 C 307.140625 299.742188 307.054688 299.738281 307.007812 299.679688 C 306.960938 299.632812 306.960938 299.5625 306.996094 299.511719 C 307.363281 298.996094 307.707031 298.46875 308.007812 297.921875 C 308.304688 297.375 308.570312 296.816406 308.789062 296.234375 C 309.011719 295.652344 309.1875 295.054688 309.332031 294.449219 C 309.449219 293.917969 309.53125 293.378906 309.597656 292.832031 C 309.605469 292.75 309.617188 292.667969 309.625 292.585938 C 309.632812 292.523438 309.6875 292.476562 309.753906 292.480469 C 309.808594 292.488281 309.847656 292.53125 309.855469 292.582031 Z M 308.425781 279.542969 C 308.472656 279.664062 308.515625 279.792969 308.527344 279.929688 C 308.539062 280.0625 308.542969 280.199219 308.503906 280.34375 C 308.476562 280.425781 308.390625 280.472656 308.308594 280.449219 C 308.28125 280.441406 308.257812 280.425781 308.242188 280.40625 L 308.234375 280.402344 C 308.140625 280.296875 308.078125 280.191406 308.019531 280.085938 C 307.957031 279.980469 307.914062 279.871094 307.871094 279.757812 C 307.832031 279.648438 307.792969 279.535156 307.773438 279.414062 C 307.746094 279.292969 307.722656 279.171875 307.726562 279.027344 C 307.726562 278.953125 307.785156 278.894531 307.855469 278.894531 C 307.878906 278.894531 307.90625 278.902344 307.925781 278.914062 C 308.050781 278.988281 308.144531 279.089844 308.230469 279.195312 C 308.316406 279.300781 308.375 279.417969 308.425781 279.542969 Z M 307.972656 277.75 C 307.5625 277.222656 307.136719 276.703125 306.710938 276.164062 C 306.292969 275.628906 305.875 275.070312 305.542969 274.449219 C 305.355469 274.097656 305.195312 273.730469 305.078125 273.34375 C 304.988281 273.054688 304.921875 272.757812 304.894531 272.457031 C 304.890625 272.390625 304.9375 272.335938 305 272.332031 C 305.015625 272.328125 305.023438 272.339844 305.039062 272.339844 C 305.074219 272.351562 305.109375 272.375 305.121094 272.414062 C 305.316406 273.050781 305.613281 273.640625 305.976562 274.191406 C 306.34375 274.742188 306.753906 275.269531 307.179688 275.796875 C 307.597656 276.328125 308.03125 276.859375 308.40625 277.445312 C 308.78125 278.03125 309.117188 278.65625 309.289062 279.339844 C 309.308594 279.410156 309.265625 279.484375 309.191406 279.503906 C 309.128906 279.519531 309.0625 279.488281 309.035156 279.433594 C 308.738281 278.835938 308.375 278.28125 307.972656 277.75 Z M 306.453125 244.21875 C 306.53125 244.191406 306.617188 244.238281 306.640625 244.320312 C 306.648438 244.351562 306.648438 244.382812 306.640625 244.410156 L 306.636719 244.414062 C 306.589844 244.558594 306.523438 244.671875 306.460938 244.785156 C 306.398438 244.898438 306.324219 245 306.253906 245.105469 C 306.171875 245.203125 306.101562 245.304688 306.007812 245.398438 C 305.917969 245.492188 305.828125 245.589844 305.707031 245.683594 L 305.703125 245.683594 C 305.648438 245.726562 305.566406 245.710938 305.523438 245.65625 C 305.507812 245.636719 305.5 245.613281 305.5 245.585938 C 305.488281 245.429688 305.523438 245.285156 305.570312 245.144531 C 305.613281 245.003906 305.6875 244.875 305.761719 244.753906 C 305.851562 244.636719 305.945312 244.527344 306.0625 244.433594 C 306.175781 244.34375 306.300781 244.261719 306.453125 244.21875 Z M 305.570312 243.550781 C 305.101562 244.238281 304.667969 244.941406 304.296875 245.6875 C 304.265625 245.753906 304.183594 245.78125 304.117188 245.746094 C 304.054688 245.71875 304.027344 245.648438 304.046875 245.585938 C 304.292969 244.765625 304.691406 244 305.121094 243.269531 C 305.554688 242.535156 306.039062 241.847656 306.476562 241.140625 C 307.382812 239.753906 308.164062 238.277344 308.355469 236.632812 C 308.363281 236.570312 308.421875 236.523438 308.484375 236.527344 C 308.523438 236.535156 308.550781 236.5625 308.566406 236.597656 C 308.574219 236.609375 308.585938 236.621094 308.585938 236.636719 C 308.597656 236.859375 308.59375 237.082031 308.578125 237.300781 C 308.53125 237.941406 308.371094 238.574219 308.148438 239.175781 C 307.851562 239.988281 307.421875 240.734375 306.980469 241.460938 C 306.515625 242.171875 306.035156 242.863281 305.570312 243.550781 Z M 305.101562 210.523438 C 305.136719 210.554688 305.15625 210.601562 305.152344 210.644531 C 305.128906 210.878906 305.0625 211.097656 304.992188 211.3125 C 304.921875 211.527344 304.828125 211.730469 304.726562 211.933594 C 304.617188 212.128906 304.507812 212.324219 304.367188 212.507812 C 304.234375 212.6875 304.089844 212.867188 303.914062 213.019531 C 303.863281 213.0625 303.789062 213.058594 303.742188 213.007812 C 303.71875 212.980469 303.707031 212.941406 303.71875 212.902344 C 303.765625 212.675781 303.84375 212.46875 303.925781 212.261719 C 304 212.050781 304.097656 211.859375 304.191406 211.660156 C 304.292969 211.464844 304.390625 211.273438 304.511719 211.085938 C 304.628906 210.898438 304.75 210.710938 304.902344 210.539062 C 304.953125 210.480469 305.046875 210.472656 305.101562 210.523438 Z M 305.246094 213.628906 C 304.792969 214.472656 304.398438 215.347656 304.046875 216.234375 C 303.691406 217.125 303.40625 218.039062 303.175781 218.972656 C 303.167969 219.003906 303.152344 219.023438 303.128906 219.039062 C 303.105469 219.058594 303.070312 219.066406 303.039062 219.0625 C 302.984375 219.046875 302.945312 218.992188 302.953125 218.9375 C 302.980469 218.59375 303.035156 218.253906 303.097656 217.914062 C 303.210938 217.289062 303.371094 216.667969 303.570312 216.066406 C 303.875 215.128906 304.28125 214.230469 304.714844 213.355469 C 305.171875 212.488281 305.664062 211.644531 306.195312 210.824219 C 306.726562 210.007812 307.28125 209.210938 307.871094 208.441406 C 307.917969 208.382812 308.003906 208.371094 308.0625 208.414062 C 308.117188 208.457031 308.132812 208.53125 308.101562 208.589844 C 307.628906 209.441406 307.128906 210.269531 306.644531 211.105469 C 306.160156 211.9375 305.675781 212.769531 305.246094 213.628906 Z M 303.972656 187.148438 C 304.042969 187.101562 304.136719 187.117188 304.183594 187.1875 C 304.203125 187.214844 304.210938 187.25 304.207031 187.28125 C 304.199219 187.4375 304.160156 187.574219 304.121094 187.707031 C 304.085938 187.847656 304.027344 187.972656 303.972656 188.097656 C 303.910156 188.21875 303.851562 188.34375 303.769531 188.460938 C 303.695312 188.578125 303.613281 188.695312 303.5 188.804688 C 303.449219 188.855469 303.367188 188.855469 303.316406 188.804688 C 303.296875 188.785156 303.285156 188.761719 303.28125 188.734375 C 303.257812 188.574219 303.273438 188.421875 303.296875 188.273438 C 303.320312 188.125 303.375 187.988281 303.425781 187.851562 C 303.488281 187.714844 303.554688 187.585938 303.648438 187.46875 C 303.742188 187.351562 303.839844 187.234375 303.972656 187.148438 Z M 305.636719 187.597656 C 305.121094 188.625 304.65625 189.671875 304.285156 190.746094 C 303.917969 191.816406 303.667969 192.929688 303.601562 194.070312 C 303.597656 194.144531 303.53125 194.199219 303.457031 194.195312 C 303.386719 194.191406 303.332031 194.136719 303.328125 194.070312 C 303.25 192.894531 303.449219 191.710938 303.78125 190.582031 C 304.117188 189.453125 304.59375 188.378906 305.097656 187.335938 L 306.691406 184.257812 C 307.101562 183.449219 307.480469 182.628906 307.804688 181.785156 C 307.894531 181.558594 307.976562 181.335938 308.058594 181.105469 C 308.078125 181.046875 308.140625 181.015625 308.203125 181.035156 C 308.257812 181.054688 308.289062 181.109375 308.277344 181.164062 C 308.164062 181.722656 308 182.269531 307.8125 182.808594 C 307.617188 183.375 307.386719 183.929688 307.148438 184.472656 C 306.675781 185.539062 306.128906 186.558594 305.636719 187.597656 Z M 306.652344 150.511719 C 306.621094 150.484375 306.605469 150.449219 306.605469 150.410156 L 306.605469 150.40625 C 306.59375 150.230469 306.605469 150.074219 306.609375 149.917969 L 306.632812 149.457031 L 306.667969 148.992188 C 306.679688 148.832031 306.6875 148.671875 306.714844 148.496094 C 306.726562 148.429688 306.792969 148.382812 306.859375 148.394531 C 306.890625 148.398438 306.917969 148.417969 306.9375 148.441406 C 307.054688 148.589844 307.121094 148.761719 307.171875 148.9375 C 307.222656 149.117188 307.234375 149.300781 307.230469 149.484375 C 307.222656 149.667969 307.195312 149.851562 307.128906 150.023438 C 307.066406 150.195312 306.984375 150.363281 306.855469 150.5 C 306.804688 150.558594 306.710938 150.566406 306.652344 150.511719 Z M 307.679688 147.808594 C 307.632812 147.464844 307.609375 147.121094 307.589844 146.777344 C 307.574219 146.433594 307.5625 146.089844 307.578125 145.746094 C 307.585938 145.402344 307.605469 145.054688 307.65625 144.707031 C 307.667969 144.640625 307.726562 144.601562 307.789062 144.609375 C 307.835938 144.617188 307.875 144.652344 307.886719 144.695312 C 307.976562 145.035156 308.035156 145.375 308.082031 145.71875 C 308.136719 146.058594 308.160156 146.402344 308.1875 146.746094 C 308.203125 147.089844 308.21875 147.433594 308.210938 147.777344 C 308.203125 148.125 308.1875 148.46875 308.136719 148.816406 C 308.125 148.890625 308.054688 148.945312 307.980469 148.933594 C 307.925781 148.925781 307.878906 148.882812 307.867188 148.832031 C 307.777344 148.492188 307.726562 148.148438 307.679688 147.808594 Z M 304.628906 131.777344 C 304.601562 131.570312 304.609375 131.367188 304.628906 131.164062 C 304.652344 130.960938 304.691406 130.757812 304.761719 130.5625 C 304.828125 130.371094 304.90625 130.179688 305.03125 130.003906 C 305.066406 129.949219 305.144531 129.9375 305.199219 129.976562 C 305.230469 129.996094 305.25 130.03125 305.25 130.066406 C 305.273438 130.269531 305.261719 130.464844 305.257812 130.65625 C 305.257812 130.847656 305.238281 131.035156 305.226562 131.222656 C 305.203125 131.410156 305.191406 131.597656 305.15625 131.785156 C 305.125 131.972656 305.101562 132.164062 305.042969 132.359375 C 305.023438 132.4375 304.941406 132.480469 304.863281 132.460938 C 304.824219 132.449219 304.789062 132.414062 304.769531 132.378906 C 304.6875 132.183594 304.648438 131.980469 304.628906 131.777344 Z M 304.742188 127.085938 C 304.648438 127.539062 304.546875 127.988281 304.472656 128.445312 C 304.390625 128.898438 304.332031 129.355469 304.265625 129.8125 L 304.101562 131.199219 C 304.09375 131.273438 304.023438 131.328125 303.949219 131.316406 C 303.886719 131.3125 303.839844 131.265625 303.828125 131.207031 C 303.800781 131.03125 303.785156 130.855469 303.769531 130.679688 C 303.746094 130.375 303.730469 130.074219 303.738281 129.769531 C 303.738281 129.679688 303.75 129.585938 303.753906 129.496094 C 303.777344 129.105469 303.816406 128.722656 303.882812 128.339844 C 303.976562 127.867188 304.089844 127.398438 304.253906 126.949219 C 304.414062 126.496094 304.601562 126.054688 304.84375 125.640625 C 304.875 125.582031 304.945312 125.5625 305.003906 125.597656 C 305.046875 125.625 305.066406 125.675781 305.054688 125.722656 Z M 309.320312 107.914062 C 309.277344 107.882812 309.253906 107.832031 309.257812 107.785156 C 309.28125 107.492188 309.339844 107.214844 309.40625 106.933594 C 309.46875 106.65625 309.554688 106.386719 309.648438 106.117188 C 309.742188 105.851562 309.839844 105.582031 309.960938 105.324219 C 310.082031 105.0625 310.203125 104.808594 310.367188 104.5625 C 310.402344 104.507812 310.472656 104.492188 310.527344 104.527344 C 310.566406 104.550781 310.585938 104.59375 310.582031 104.632812 C 310.558594 104.925781 310.503906 105.207031 310.441406 105.484375 C 310.382812 105.765625 310.296875 106.039062 310.214844 106.308594 C 310.121094 106.578125 310.027344 106.84375 309.910156 107.105469 C 309.792969 107.367188 309.671875 107.621094 309.515625 107.871094 C 309.472656 107.9375 309.386719 107.957031 309.320312 107.914062 Z M 305.453125 118.886719 C 305.277344 119.277344 305.082031 119.65625 304.894531 120.042969 C 304.699219 120.421875 304.507812 120.804688 304.296875 121.179688 C 304.09375 121.554688 303.886719 121.933594 303.648438 122.300781 C 303.640625 122.316406 303.625 122.320312 303.609375 122.328125 C 303.574219 122.351562 303.527344 122.363281 303.492188 122.335938 C 303.445312 122.308594 303.425781 122.257812 303.4375 122.210938 C 303.484375 122.027344 303.539062 121.851562 303.59375 121.675781 C 303.667969 121.4375 303.75 121.199219 303.835938 120.96875 C 303.988281 120.558594 304.167969 120.164062 304.355469 119.773438 C 304.550781 119.386719 304.753906 119.003906 304.984375 118.632812 C 305.210938 118.265625 305.449219 117.898438 305.726562 117.558594 C 305.773438 117.5 305.859375 117.492188 305.917969 117.542969 C 305.964844 117.582031 305.980469 117.640625 305.960938 117.695312 C 305.808594 118.105469 305.628906 118.496094 305.453125 118.886719 Z M 310.824219 108.625 C 310.875 108.652344 310.894531 108.710938 310.882812 108.761719 C 310.761719 109.164062 310.621094 109.554688 310.472656 109.949219 C 310.359375 110.246094 310.242188 110.539062 310.117188 110.828125 C 309.835938 111.507812 309.507812 112.167969 309.160156 112.820312 C 308.808594 113.464844 308.433594 114.101562 308.023438 114.714844 C 307.617188 115.324219 307.183594 115.921875 306.707031 116.484375 C 306.660156 116.542969 306.574219 116.550781 306.515625 116.503906 C 306.464844 116.460938 306.453125 116.386719 306.484375 116.328125 L 307.574219 114.433594 L 308.632812 112.535156 C 308.984375 111.898438 309.320312 111.257812 309.660156 110.613281 L 310.519531 108.960938 L 310.667969 108.675781 C 310.699219 108.617188 310.765625 108.597656 310.824219 108.625 Z M 311.691406 85.40625 C 311.742188 85.429688 311.769531 85.488281 311.75 85.542969 C 311.714844 85.667969 311.671875 85.796875 311.632812 85.921875 C 311.378906 86.75 311.105469 87.574219 310.824219 88.390625 C 310.496094 89.335938 310.144531 90.269531 309.804688 91.207031 C 309.441406 92.136719 309.089844 93.070312 308.714844 93.996094 C 308.335938 94.921875 307.953125 95.84375 307.535156 96.75 C 307.5 96.820312 307.421875 96.851562 307.351562 96.820312 C 307.289062 96.789062 307.257812 96.71875 307.277344 96.65625 C 307.566406 95.699219 307.890625 94.753906 308.21875 93.808594 C 308.546875 92.867188 308.902344 91.9375 309.246094 90.996094 C 309.613281 90.070312 309.964844 89.136719 310.347656 88.210938 C 310.730469 87.289062 311.117188 86.371094 311.539062 85.460938 C 311.558594 85.414062 311.609375 85.398438 311.65625 85.40625 C 311.667969 85.40625 311.679688 85.398438 311.691406 85.40625 Z M 313.101562 75.417969 C 313.09375 75.492188 313.027344 75.546875 312.953125 75.542969 C 312.890625 75.535156 312.839844 75.488281 312.828125 75.429688 C 312.734375 74.867188 312.636719 74.316406 312.507812 73.773438 C 312.375 73.234375 312.230469 72.695312 312.050781 72.167969 C 311.878906 71.640625 311.671875 71.125 311.453125 70.613281 C 311.382812 70.445312 311.300781 70.289062 311.226562 70.125 C 311.152344 69.972656 311.082031 69.820312 311.003906 69.667969 C 311.003906 69.667969 311.003906 69.667969 311.003906 69.664062 C 310.96875 69.953125 310.941406 70.242188 310.898438 70.527344 C 310.894531 70.566406 310.886719 70.609375 310.878906 70.648438 C 310.839844 70.890625 310.789062 71.132812 310.726562 71.378906 C 310.71875 71.410156 310.710938 71.4375 310.703125 71.46875 C 310.582031 71.839844 310.417969 72.0625 310.273438 72.34375 L 309.375 73.972656 L 307.582031 77.226562 L 306.207031 79.664062 L 305.808594 80.375 L 303.933594 83.699219 C 302.652344 85.800781 301.617188 88.035156 300.796875 90.363281 L 300.796875 90.367188 C 300.769531 90.4375 300.691406 90.472656 300.621094 90.449219 C 300.554688 90.425781 300.515625 90.351562 300.539062 90.28125 C 300.894531 89.085938 301.316406 87.917969 301.792969 86.765625 C 302.035156 86.195312 302.304688 85.628906 302.589844 85.074219 C 302.878906 84.515625 303.1875 83.976562 303.476562 83.429688 L 304.238281 82.054688 L 304.476562 81.621094 L 305.046875 80.585938 L 305.773438 79.265625 L 306.234375 78.433594 L 307.058594 76.933594 L 308.882812 73.703125 L 309.792969 72.089844 C 309.9375 71.824219 310.128906 71.53125 310.199219 71.308594 C 310.261719 71.097656 310.308594 70.871094 310.355469 70.640625 C 310.367188 70.574219 310.390625 70.511719 310.402344 70.441406 C 310.441406 70.207031 310.472656 69.964844 310.507812 69.726562 C 310.65625 68.75 310.769531 67.769531 310.871094 66.78125 C 311 65.550781 311.113281 64.320312 311.210938 63.089844 C 311.214844 63.027344 311.269531 62.976562 311.332031 62.980469 C 311.394531 62.984375 311.441406 63.039062 311.441406 63.101562 C 311.378906 64.925781 311.304688 66.746094 311.132812 68.574219 C 311.117188 68.699219 311.101562 68.828125 311.089844 68.957031 C 311.082031 69.027344 311.070312 69.097656 311.0625 69.167969 C 311.207031 69.339844 311.347656 69.515625 311.476562 69.699219 C 311.628906 69.921875 311.773438 70.148438 311.902344 70.386719 C 312.195312 70.890625 312.425781 71.425781 312.621094 71.976562 C 312.804688 72.53125 312.949219 73.097656 313.027344 73.675781 C 313.109375 74.253906 313.148438 74.839844 313.101562 75.417969 Z M 299.878906 66.234375 C 299.71875 65.738281 299.625 65.21875 299.589844 64.6875 C 299.546875 64.160156 299.582031 63.617188 299.695312 63.089844 C 299.734375 62.925781 299.78125 62.761719 299.835938 62.605469 C 299.957031 62.25 300.113281 61.90625 300.324219 61.59375 C 300.621094 61.140625 301.015625 60.742188 301.484375 60.480469 C 301.539062 60.449219 301.609375 60.472656 301.640625 60.527344 C 301.652344 60.542969 301.652344 60.566406 301.652344 60.585938 C 301.652344 60.613281 301.644531 60.640625 301.621094 60.664062 C 300.910156 61.371094 300.484375 62.265625 300.28125 63.214844 C 300.179688 63.691406 300.136719 64.179688 300.117188 64.675781 C 300.101562 65.175781 300.125 65.675781 300.144531 66.1875 C 300.148438 66.265625 300.089844 66.328125 300.015625 66.332031 C 299.949219 66.332031 299.898438 66.292969 299.878906 66.234375 Z M 306.351562 62.148438 C 306.3125 62.097656 306.320312 62.023438 306.359375 61.976562 C 306.804688 61.457031 307.191406 60.90625 307.5 60.316406 C 307.808594 59.726562 308.042969 59.101562 308.183594 58.457031 C 308.339844 57.820312 308.332031 57.136719 308.460938 56.425781 C 308.578125 55.726562 308.867188 54.960938 309.496094 54.535156 C 309.546875 54.496094 309.617188 54.511719 309.652344 54.566406 C 309.683594 54.609375 309.679688 54.671875 309.640625 54.707031 L 309.640625 54.710938 C 309.1875 55.1875 309.019531 55.839844 308.960938 56.496094 C 308.90625 57.152344 308.925781 57.867188 308.769531 58.582031 C 308.613281 59.289062 308.34375 59.972656 307.960938 60.582031 C 307.582031 61.191406 307.105469 61.738281 306.546875 62.171875 C 306.488281 62.21875 306.398438 62.207031 306.351562 62.148438 Z M 302.152344 67.183594 C 301.359375 68.105469 300.585938 69.050781 299.828125 70.007812 C 299.789062 70.054688 299.71875 70.066406 299.667969 70.027344 C 299.621094 69.988281 299.609375 69.925781 299.640625 69.871094 C 300.417969 68.664062 301.261719 67.5 302.171875 66.378906 C 302.230469 66.308594 302.292969 66.238281 302.351562 66.167969 C 302.726562 65.714844 303.121094 65.269531 303.53125 64.84375 C 303.558594 64.816406 303.585938 64.785156 303.613281 64.757812 C 304.109375 64.246094 304.699219 63.730469 305.296875 63.351562 L 308.882812 60.980469 C 309.289062 60.71875 309.695312 60.457031 310.105469 60.195312 C 310.8125 59.742188 311.519531 59.296875 312.238281 58.859375 C 312.3125 58.8125 312.386719 58.765625 312.464844 58.71875 C 312.480469 58.707031 312.5 58.695312 312.519531 58.683594 C 312.523438 58.683594 312.527344 58.683594 312.53125 58.683594 C 312.59375 58.652344 312.667969 58.671875 312.707031 58.730469 C 312.734375 58.777344 312.722656 58.824219 312.699219 58.867188 C 312.691406 58.882812 312.6875 58.902344 312.667969 58.914062 C 312.511719 59.03125 312.351562 59.144531 312.191406 59.261719 C 311.195312 59.992188 310.191406 60.710938 309.179688 61.417969 L 306.160156 63.488281 L 305.824219 63.714844 L 305.640625 63.84375 C 304.4375 64.574219 303.515625 65.65625 302.554688 66.707031 C 302.421875 66.863281 302.289062 67.023438 302.152344 67.183594 Z M 164.542969 246.523438 C 163.339844 249.765625 162.410156 253.101562 161.589844 256.464844 C 160.75 259.820312 160.003906 263.203125 159.226562 266.578125 C 157.671875 273.332031 155.9375 280.0625 153.742188 286.644531 C 152.644531 289.941406 151.460938 293.199219 150.050781 296.390625 C 148.535156 299.523438 146.8125 302.578125 144.597656 305.28125 C 142.398438 307.980469 139.839844 310.402344 136.953125 312.359375 C 136.601562 312.617188 136.230469 312.84375 135.851562 313.0625 L 134.730469 313.734375 C 134.351562 313.941406 133.957031 314.132812 133.570312 314.332031 C 133.1875 314.539062 132.796875 314.730469 132.394531 314.898438 C 130.933594 315.558594 129.421875 316.097656 127.84375 316.445312 C 127.710938 316.472656 127.574219 316.511719 127.4375 316.539062 C 127.375 316.550781 127.316406 316.507812 127.304688 316.449219 C 127.300781 316.441406 127.308594 316.433594 127.308594 316.421875 C 127.3125 316.371094 127.339844 316.324219 127.394531 316.316406 L 127.402344 316.3125 C 129.078125 315.953125 130.707031 315.347656 132.261719 314.609375 C 132.65625 314.4375 133.039062 314.242188 133.417969 314.03125 C 133.796875 313.828125 134.179688 313.632812 134.554688 313.417969 L 135.652344 312.738281 C 136.019531 312.515625 136.386719 312.285156 136.726562 312.027344 C 139.5625 310.070312 142.074219 307.667969 144.230469 304.984375 C 146.402344 302.304688 148.085938 299.269531 149.566406 296.167969 C 150.9375 293.015625 152.101562 289.746094 153.175781 286.460938 C 155.390625 279.90625 157.160156 273.207031 158.746094 266.46875 C 160.34375 259.738281 161.761719 252.910156 164.289062 246.425781 C 164.316406 246.355469 164.394531 246.324219 164.464844 246.347656 C 164.53125 246.378906 164.566406 246.453125 164.542969 246.523438 Z M 265.167969 186.121094 C 264.160156 180.175781 263.152344 174.234375 262.070312 168.308594 C 261.546875 165.339844 261.011719 162.390625 260.210938 159.488281 C 259.441406 156.582031 258.609375 153.683594 257.765625 150.792969 L 255.179688 142.132812 L 252.601562 133.554688 L 252.574219 133.476562 C 252.554688 133.414062 252.589844 133.351562 252.652344 133.332031 C 252.6875 133.320312 252.71875 133.332031 252.75 133.355469 C 252.765625 133.367188 252.785156 133.382812 252.796875 133.40625 L 255.566406 142.011719 C 256.464844 144.890625 257.347656 147.773438 258.214844 150.660156 C 259.082031 153.546875 259.933594 156.4375 260.730469 159.351562 C 261.550781 162.257812 262.113281 165.242188 262.65625 168.203125 C 263.714844 174.140625 264.683594 180.089844 265.652344 186.039062 L 267.089844 194.964844 L 268.160156 202.019531 L 268.445312 203.902344 C 268.449219 203.917969 268.441406 203.929688 268.433594 203.949219 C 268.425781 204 268.390625 204.046875 268.332031 204.058594 C 268.328125 204.058594 268.328125 204.054688 268.324219 204.054688 C 268.253906 204.058594 268.191406 204.015625 268.179688 203.945312 L 266.65625 195.035156 Z M 298.496094 160.011719 C 298.539062 160.058594 298.535156 160.125 298.496094 160.167969 L 298.488281 160.175781 C 296.433594 162.265625 295.160156 165.152344 295.203125 168.078125 C 295.203125 171.03125 295.464844 174.003906 295.691406 176.972656 L 296.007812 181.429688 C 296.09375 182.917969 296.199219 184.40625 296.15625 185.917969 C 295.898438 188.921875 295.46875 191.832031 295.105469 194.796875 L 295.101562 194.828125 C 295.089844 194.898438 295.027344 194.953125 294.949219 194.945312 C 294.878906 194.933594 294.828125 194.871094 294.832031 194.796875 L 295.234375 190.34375 L 295.453125 188.113281 C 295.523438 187.371094 295.617188 186.621094 295.625 185.90625 C 295.609375 182.960938 295.316406 179.984375 295.097656 177.015625 C 294.992188 175.53125 294.886719 174.042969 294.804688 172.554688 C 294.726562 171.0625 294.644531 169.570312 294.699219 168.066406 C 294.710938 167.316406 294.808594 166.550781 294.960938 165.808594 C 295.140625 165.066406 295.378906 164.34375 295.691406 163.652344 C 296.347656 162.285156 297.21875 161.03125 298.335938 160.003906 C 298.382812 159.960938 298.457031 159.964844 298.496094 160.011719 Z M 303.988281 170.023438 C 304.085938 169.765625 304.226562 169.546875 304.394531 169.351562 C 304.257812 169.074219 304.230469 168.753906 304.328125 168.484375 C 304.351562 168.421875 304.414062 168.390625 304.476562 168.414062 C 304.519531 168.429688 304.546875 168.464844 304.550781 168.511719 L 304.554688 168.527344 C 304.578125 168.84375 304.722656 169.132812 304.949219 169.277344 C 305.183594 169.410156 305.539062 169.554688 305.855469 169.679688 C 306.179688 169.820312 306.511719 169.949219 306.832031 170.101562 C 307.140625 170.242188 307.453125 170.386719 307.753906 170.558594 C 307.765625 170.566406 307.785156 170.574219 307.796875 170.582031 C 307.824219 170.597656 307.84375 170.628906 307.855469 170.65625 C 307.867188 170.691406 307.871094 170.730469 307.847656 170.769531 C 307.828125 170.804688 307.789062 170.824219 307.753906 170.832031 C 307.738281 170.832031 307.726562 170.839844 307.710938 170.835938 C 307.347656 170.789062 306.996094 170.695312 306.648438 170.597656 C 306.300781 170.5 305.960938 170.375 305.625 170.234375 C 305.289062 170.078125 304.96875 169.957031 304.625 169.664062 C 304.617188 169.65625 304.613281 169.652344 304.605469 169.644531 C 304.554688 169.820312 304.503906 169.988281 304.476562 170.152344 C 304.445312 170.421875 304.476562 170.621094 304.589844 170.679688 C 304.777344 170.820312 305.046875 170.9375 305.300781 171.054688 C 305.558594 171.167969 305.839844 171.269531 306.109375 171.382812 L 306.117188 171.386719 C 306.1875 171.417969 306.21875 171.496094 306.191406 171.570312 C 306.167969 171.621094 306.121094 171.648438 306.074219 171.652344 C 305.75 171.671875 305.441406 171.632812 305.132812 171.558594 C 304.820312 171.480469 304.523438 171.367188 304.226562 171.152344 C 304.035156 171.019531 303.921875 170.773438 303.910156 170.574219 C 303.894531 170.367188 303.929688 170.183594 303.988281 170.023438 Z M 302.160156 165.800781 C 302.195312 165.824219 302.214844 165.863281 302.21875 165.902344 C 302.226562 166.164062 302.191406 166.414062 302.140625 166.660156 C 302.097656 166.910156 302.015625 167.152344 301.925781 167.390625 C 301.828125 167.625 301.710938 167.859375 301.554688 168.074219 C 301.398438 168.28125 301.214844 168.5 300.941406 168.613281 C 300.871094 168.644531 300.789062 168.613281 300.757812 168.542969 C 300.738281 168.496094 300.746094 168.449219 300.773438 168.40625 L 300.78125 168.394531 C 300.90625 168.214844 301.003906 168.011719 301.097656 167.804688 C 301.183594 167.589844 301.28125 167.378906 301.371094 167.160156 C 301.5625 166.726562 301.742188 166.28125 301.996094 165.847656 C 302.027344 165.789062 302.101562 165.769531 302.160156 165.800781 Z M 310.464844 166.355469 C 310.5 166.414062 310.484375 166.484375 310.4375 166.527344 C 309.574219 167.261719 308.671875 167.941406 307.757812 168.605469 C 307.691406 168.652344 307.628906 168.699219 307.566406 168.746094 C 307.503906 168.792969 307.425781 168.808594 307.355469 168.796875 C 306.554688 168.695312 305.769531 168.550781 304.980469 168.3125 C 304.789062 168.242188 304.59375 168.179688 304.394531 168.078125 C 304.300781 168.039062 304.199219 167.976562 304.101562 167.910156 C 303.988281 167.824219 303.914062 167.742188 303.851562 167.648438 C 303.742188 167.488281 303.660156 167.316406 303.605469 167.140625 C 303.601562 167.125 303.589844 167.105469 303.585938 167.089844 C 303.519531 166.871094 303.492188 166.644531 303.503906 166.414062 C 303.503906 166.359375 303.550781 166.320312 303.601562 166.3125 C 303.609375 166.3125 303.613281 166.308594 303.621094 166.308594 C 303.621094 166.308594 303.621094 166.304688 303.621094 166.304688 C 303.679688 166.308594 303.71875 166.351562 303.730469 166.402344 L 303.730469 166.414062 C 303.792969 166.773438 303.941406 167.136719 304.179688 167.386719 C 304.367188 167.625 304.757812 167.699219 305.125 167.800781 C 305.839844 167.972656 306.585938 168.085938 307.324219 168.195312 C 307.46875 168.09375 307.617188 168 307.761719 167.898438 C 308.585938 167.34375 309.414062 166.800781 310.277344 166.304688 C 310.34375 166.265625 310.429688 166.289062 310.464844 166.355469 Z M 302.972656 164.527344 C 302.949219 164.546875 302.917969 164.566406 302.890625 164.582031 C 302.386719 164.855469 301.855469 165.019531 301.300781 165.097656 C 301.238281 165.105469 301.179688 165.0625 301.171875 165 C 301.160156 164.941406 301.199219 164.890625 301.25 164.875 L 301.257812 164.871094 C 301.757812 164.722656 302.265625 164.527344 302.679688 164.238281 C 302.710938 164.21875 302.738281 164.195312 302.769531 164.171875 C 302.941406 164.046875 303.105469 163.910156 303.214844 163.746094 C 303.265625 163.675781 303.296875 163.597656 303.328125 163.519531 C 303.378906 163.394531 303.414062 163.265625 303.417969 163.132812 C 303.417969 162.996094 303.53125 162.882812 303.671875 162.882812 C 303.671875 162.882812 303.671875 162.886719 303.671875 162.886719 C 303.6875 162.886719 303.703125 162.886719 303.714844 162.886719 L 303.730469 162.890625 C 304.507812 163.042969 305.300781 163.183594 306.082031 163.207031 C 306.46875 163.222656 306.863281 163.207031 307.199219 163.125 C 307.28125 163.101562 307.371094 163.085938 307.429688 163.046875 C 307.507812 163.019531 307.558594 162.980469 307.601562 162.9375 C 307.664062 162.886719 307.632812 162.910156 307.640625 162.886719 C 307.648438 162.875 307.621094 162.8125 307.585938 162.753906 C 307.417969 162.492188 307.085938 162.242188 306.773438 162.019531 C 306.457031 161.789062 306.117188 161.578125 305.773438 161.375 C 305.101562 160.980469 304.40625 160.605469 303.710938 160.242188 C 303.695312 160.234375 303.675781 160.222656 303.660156 160.214844 C 303.59375 160.183594 303.566406 160.105469 303.597656 160.035156 C 303.621094 159.988281 303.667969 159.96875 303.714844 159.964844 C 303.730469 159.964844 303.75 159.960938 303.765625 159.964844 C 304.53125 160.25 305.28125 160.570312 306.007812 160.949219 C 306.585938 161.269531 307.171875 161.546875 307.691406 162.035156 L 307.714844 161.957031 C 307.746094 161.863281 307.84375 161.714844 307.917969 161.582031 C 307.925781 161.574219 307.933594 161.566406 307.9375 161.558594 C 308.011719 161.429688 308.101562 161.308594 308.1875 161.183594 C 308.289062 161.058594 308.386719 160.921875 308.507812 160.808594 C 308.625 160.6875 308.742188 160.566406 308.894531 160.46875 C 308.953125 160.433594 309.027344 160.445312 309.066406 160.5 C 309.085938 160.527344 309.09375 160.5625 309.085938 160.589844 C 309.058594 160.773438 308.996094 160.933594 308.925781 161.089844 C 308.859375 161.25 308.765625 161.394531 308.671875 161.535156 C 308.570312 161.671875 308.460938 161.808594 308.324219 161.925781 C 308.203125 162.023438 308.097656 162.125 307.90625 162.183594 C 307.890625 162.191406 307.875 162.191406 307.859375 162.195312 C 307.871094 162.214844 307.886719 162.230469 307.902344 162.246094 C 307.960938 162.308594 308.015625 162.371094 308.070312 162.441406 C 308.136719 162.554688 308.214844 162.679688 308.21875 162.867188 C 308.242188 163.046875 308.121094 163.277344 308.015625 163.347656 C 307.960938 163.40625 307.902344 163.453125 307.839844 163.492188 C 307.789062 163.527344 307.738281 163.554688 307.6875 163.574219 C 307.574219 163.640625 307.464844 163.664062 307.351562 163.699219 C 306.902344 163.816406 306.476562 163.804688 306.054688 163.789062 C 305.308594 163.738281 304.589844 163.617188 303.871094 163.441406 C 303.824219 163.609375 303.753906 163.765625 303.660156 163.90625 C 303.632812 163.945312 303.609375 163.984375 303.578125 164.023438 C 303.480469 164.148438 303.367188 164.253906 303.25 164.347656 C 303.265625 164.667969 303.328125 165.007812 303.503906 165.1875 C 303.550781 165.222656 303.589844 165.253906 303.636719 165.277344 C 303.648438 165.277344 303.65625 165.285156 303.667969 165.289062 C 303.730469 165.3125 303.839844 165.328125 303.929688 165.347656 C 304.117188 165.378906 304.3125 165.40625 304.507812 165.425781 C 305.285156 165.507812 306.085938 165.59375 306.84375 165.574219 C 306.925781 165.566406 307.050781 165.574219 307.074219 165.550781 C 307.101562 165.554688 307.1875 165.496094 307.253906 165.460938 C 307.402344 165.367188 307.550781 165.25 307.699219 165.125 C 307.730469 165.097656 307.761719 165.066406 307.796875 165.035156 C 308.054688 164.808594 308.300781 164.5625 308.558594 164.328125 L 310.253906 162.652344 C 310.296875 162.613281 310.351562 162.613281 310.402344 162.632812 C 310.417969 162.640625 310.433594 162.640625 310.449219 162.652344 C 310.488281 162.691406 310.488281 162.746094 310.46875 162.796875 C 310.464844 162.808594 310.46875 162.816406 310.460938 162.828125 C 309.992188 163.480469 309.480469 164.101562 308.941406 164.699219 C 308.671875 165 308.378906 165.28125 308.074219 165.558594 C 307.984375 165.640625 307.882812 165.71875 307.785156 165.800781 C 307.714844 165.851562 307.648438 165.90625 307.574219 165.953125 C 307.464844 166.015625 307.394531 166.082031 307.21875 166.128906 C 307.132812 166.15625 307.078125 166.160156 307.023438 166.164062 C 306.96875 166.167969 306.914062 166.171875 306.859375 166.171875 C 306.019531 166.160156 305.230469 166.070312 304.429688 165.925781 C 304.230469 165.886719 304.03125 165.84375 303.828125 165.789062 C 303.761719 165.773438 303.695312 165.753906 303.628906 165.730469 C 303.589844 165.71875 303.554688 165.707031 303.511719 165.691406 C 303.496094 165.683594 303.484375 165.671875 303.46875 165.664062 C 303.359375 165.609375 303.265625 165.53125 303.195312 165.445312 C 302.996094 165.136719 302.960938 164.828125 302.972656 164.527344 Z M 128.378906 194.398438 C 127.488281 190.710938 127.125 186.953125 126.761719 183.210938 C 126.4375 179.464844 126.230469 175.703125 125.871094 171.980469 C 125.777344 171.046875 125.660156 170.128906 125.34375 169.285156 C 125.03125 168.433594 124.515625 167.660156 123.890625 166.988281 C 122.640625 165.636719 121.015625 164.617188 119.292969 163.945312 L 119.285156 163.945312 C 119.226562 163.921875 119.199219 163.855469 119.222656 163.796875 C 119.246094 163.738281 119.308594 163.707031 119.367188 163.730469 C 121.15625 164.363281 122.832031 165.339844 124.183594 166.710938 C 124.851562 167.398438 125.414062 168.210938 125.765625 169.121094 C 126.125 170.03125 126.261719 170.992188 126.371094 171.925781 C 126.796875 175.671875 126.996094 179.421875 127.359375 183.15625 C 127.699219 186.890625 128.066406 190.636719 128.894531 194.273438 C 129.109375 195.175781 129.359375 196.074219 129.707031 196.925781 C 129.878906 197.347656 130.082031 197.761719 130.332031 198.125 C 130.59375 198.5 130.886719 198.875 131.175781 199.238281 C 131.75 199.96875 132.355469 200.683594 133.019531 201.332031 C 133.351562 201.652344 133.699219 201.960938 134.066406 202.242188 C 134.425781 202.511719 134.835938 202.789062 135.226562 202.910156 L 135.257812 202.921875 C 135.328125 202.945312 135.367188 203.019531 135.347656 203.089844 C 135.324219 203.160156 135.25 203.199219 135.175781 203.179688 C 134.195312 202.855469 133.492188 202.214844 132.777344 201.589844 C 132.078125 200.945312 131.4375 200.238281 130.835938 199.515625 C 130.53125 199.148438 130.242188 198.785156 129.957031 198.394531 C 129.667969 197.988281 129.449219 197.554688 129.261719 197.113281 C 128.882812 196.230469 128.617188 195.316406 128.378906 194.398438 Z M 197.066406 149.851562 C 196.507812 152.703125 195.523438 155.457031 194.320312 158.097656 L 193.324219 160.035156 C 193.167969 160.359375 192.988281 160.675781 192.792969 160.980469 L 192.226562 161.910156 C 191.703125 162.832031 191.097656 163.703125 190.476562 164.5625 C 190.25 164.878906 190.019531 165.195312 189.792969 165.507812 C 189.382812 166.109375 188.902344 166.648438 188.4375 167.203125 L 187.039062 168.867188 C 186.132812 169.828125 185.195312 170.753906 184.269531 171.695312 C 184.183594 171.785156 184.09375 171.875 184.007812 171.964844 C 183.976562 171.996094 183.933594 172.003906 183.894531 172 C 183.882812 171.996094 183.871094 171.988281 183.859375 171.984375 C 183.84375 171.976562 183.828125 171.976562 183.816406 171.96875 C 183.761719 171.917969 183.761719 171.832031 183.808594 171.777344 L 183.816406 171.773438 C 184.78125 170.703125 185.765625 169.65625 186.710938 168.578125 L 188.0625 166.898438 C 188.507812 166.339844 188.972656 165.796875 189.363281 165.195312 L 190.578125 163.453125 L 190.597656 163.429688 C 191.03125 162.859375 191.355469 162.21875 191.738281 161.613281 L 192.289062 160.691406 C 192.480469 160.390625 192.65625 160.078125 192.808594 159.753906 L 193.78125 157.839844 C 194.996094 155.253906 195.960938 152.546875 196.574219 149.75 C 196.722656 149.054688 196.878906 148.351562 196.964844 147.644531 C 197.011719 147.289062 197.074219 146.9375 197.113281 146.582031 L 197.210938 145.511719 C 197.320312 144.089844 197.351562 142.644531 197.167969 141.234375 L 197.167969 141.226562 C 197.15625 141.160156 197.203125 141.105469 197.265625 141.097656 C 197.328125 141.089844 197.382812 141.132812 197.390625 141.191406 C 197.855469 144.074219 197.617188 147.007812 197.066406 149.851562 Z M 259.132812 115.695312 C 257.113281 119.582031 254.839844 123.328125 252.355469 126.9375 C 249.839844 130.535156 247.089844 134.003906 243.867188 137.035156 C 242.257812 138.539062 240.523438 139.933594 238.601562 141.054688 C 236.695312 142.179688 234.515625 142.945312 232.277344 143.082031 C 230.046875 143.199219 227.835938 142.953125 225.660156 142.605469 C 223.480469 142.246094 221.332031 141.761719 219.203125 141.199219 C 214.945312 140.070312 210.769531 138.683594 206.640625 137.195312 C 202.503906 135.699219 198.417969 134.089844 194.367188 132.398438 C 190.3125 130.703125 186.289062 128.941406 182.3125 127.074219 C 180.285156 126.175781 178.472656 124.855469 176.785156 123.453125 C 175.101562 122.046875 173.511719 120.542969 171.996094 118.957031 C 171.988281 118.953125 171.980469 118.945312 171.972656 118.9375 C 171.933594 118.890625 171.933594 118.820312 171.980469 118.777344 C 172.019531 118.738281 172.082031 118.742188 172.125 118.773438 C 172.132812 118.78125 172.136719 118.777344 172.140625 118.78125 C 173.671875 120.34375 175.289062 121.828125 176.984375 123.207031 C 178.6875 124.582031 180.472656 125.847656 182.484375 126.707031 C 186.464844 128.546875 190.492188 130.292969 194.546875 131.964844 C 198.601562 133.628906 202.691406 135.222656 206.816406 136.691406 C 210.949219 138.160156 215.121094 139.519531 219.355469 140.621094 C 221.46875 141.183594 223.601562 141.675781 225.753906 142.035156 C 227.902344 142.394531 230.082031 142.640625 232.242188 142.535156 C 234.394531 142.410156 236.46875 141.691406 238.34375 140.601562 C 240.21875 139.519531 241.933594 138.15625 243.535156 136.675781 C 246.726562 133.695312 249.472656 130.253906 252 126.683594 C 254.527344 123.109375 256.851562 119.382812 258.917969 115.519531 L 258.921875 115.515625 C 258.929688 115.5 258.945312 115.496094 258.960938 115.484375 C 259 115.449219 259.054688 115.433594 259.105469 115.460938 C 259.167969 115.496094 259.195312 115.578125 259.160156 115.644531 C 259.152344 115.660156 259.140625 115.679688 259.132812 115.695312 Z M 221.820312 83.910156 C 221.808594 83.914062 221.828125 83.90625 221.855469 83.902344 Z M 224.84375 81.117188 C 224.398438 80.425781 223.847656 79.875 223.246094 79.367188 C 223.203125 79.332031 223.140625 79.332031 223.101562 79.367188 C 223.050781 79.40625 223.042969 79.476562 223.082031 79.527344 L 223.085938 79.53125 C 223.566406 80.121094 224.058594 80.726562 224.398438 81.367188 C 224.484375 81.53125 224.539062 81.683594 224.585938 81.84375 L 224.730469 82.410156 C 224.824219 82.757812 224.941406 83.1875 224.902344 83.394531 L 224.898438 83.398438 C 224.855469 83.421875 224.753906 83.449219 224.671875 83.46875 C 224.5 83.507812 224.316406 83.542969 224.128906 83.570312 L 222.992188 83.726562 L 222.417969 83.804688 L 222.128906 83.847656 L 221.980469 83.875 C 221.957031 83.878906 221.941406 83.882812 221.917969 83.886719 C 221.898438 83.863281 221.875 83.828125 221.851562 83.800781 C 221.796875 83.730469 221.75 83.648438 221.703125 83.570312 L 221.425781 83.074219 L 221.421875 83.070312 C 221.390625 83.015625 221.324219 82.988281 221.261719 83.007812 C 221.191406 83.027344 221.148438 83.105469 221.171875 83.175781 C 221.230469 83.367188 221.300781 83.550781 221.378906 83.734375 C 221.417969 83.824219 221.460938 83.917969 221.511719 84.011719 C 221.535156 84.054688 221.558594 84.101562 221.597656 84.15625 C 221.617188 84.171875 221.628906 84.199219 221.652344 84.226562 C 221.683594 84.257812 221.726562 84.296875 221.816406 84.332031 L 223.046875 84.253906 C 223.433594 84.234375 223.820312 84.1875 224.210938 84.136719 C 224.40625 84.113281 224.601562 84.085938 224.804688 84.039062 C 224.914062 84.015625 225.003906 84 225.132812 83.945312 C 225.167969 83.929688 225.191406 83.921875 225.234375 83.898438 C 225.285156 83.863281 225.339844 83.816406 225.382812 83.769531 C 225.4375 83.691406 225.460938 83.621094 225.480469 83.546875 C 225.484375 83.542969 225.484375 83.535156 225.488281 83.53125 C 225.535156 83.234375 225.472656 83.035156 225.433594 82.828125 C 225.382812 82.628906 225.328125 82.441406 225.269531 82.257812 L 225.109375 81.707031 C 225.050781 81.496094 224.949219 81.289062 224.84375 81.117188 " fill-opacity="1" fill-rule="nonzero"/></g></svg>